<svg width="470" height="240" viewBox="0 0 470 240" fill="none" xmlns="http://www.w3.org/2000/svg">
<g clip-path="url(#clip0_283_179)">
<path d="M0 34C0 14.236 4.236 10 24 10C43.764 10 48 14.236 48 34C48 53.764 43.764 58 24 58C4.236 58 0 53.764 0 34Z" fill="black"/>
<path d="M31 38.3333V27H19.6666" stroke="#FF0000" stroke-width="2" stroke-linecap="round" stroke-linejoin="round"/>
<path d="M30.6667 27.3335L17 41.0002" stroke="#FF0000" stroke-width="2" stroke-linecap="round" stroke-linejoin="round"/>
<path d="M70.09 32.3C69.03 32.3 68.1 32.06 67.3 31.58C66.5 31.0933 65.8833 30.42 65.45 29.56C65.0167 28.6933 64.8 27.7033 64.8 26.59C64.8 25.47 65.02 24.48 65.46 23.62C65.9 22.76 66.52 22.0933 67.32 21.62C68.12 21.14 69.0433 20.9 70.09 20.9C71.15 20.9 72.08 21.14 72.88 21.62C73.6867 22.1 74.3067 22.7733 74.74 23.64C75.1733 24.5 75.39 25.4833 75.39 26.59C75.39 27.71 75.17 28.7033 74.73 29.57C74.2967 30.43 73.68 31.1 72.88 31.58C72.08 32.06 71.15 32.3 70.09 32.3ZM67.02 26.59C67.02 27.75 67.2833 28.6633 67.81 29.33C68.3367 29.9967 69.0967 30.33 70.09 30.33C71.09 30.33 71.8533 29.9933 72.38 29.32C72.9067 28.64 73.17 27.73 73.17 26.59C73.17 25.4367 72.9067 24.53 72.38 23.87C71.8533 23.2033 71.09 22.87 70.09 22.87C69.0767 22.87 68.31 23.2033 67.79 23.87C67.2767 24.5367 67.02 25.4433 67.02 26.59ZM82.2075 32.3C81.1275 32.3 80.1942 32.0567 79.4075 31.57C78.6275 31.0833 78.0308 30.41 77.6175 29.55C77.2042 28.69 76.9942 27.7067 76.9875 26.6C76.9942 25.4867 77.2075 24.5 77.6275 23.64C78.0542 22.7733 78.6608 22.1 79.4475 21.62C80.2408 21.14 81.1708 20.9 82.2375 20.9C83.0175 20.9 83.7275 21.0333 84.3675 21.3C85.0142 21.5667 85.5542 21.9467 85.9875 22.44C86.4275 22.9333 86.7375 23.5167 86.9175 24.19L84.8375 24.79C84.6308 24.19 84.2908 23.72 83.8175 23.38C83.3508 23.04 82.8142 22.87 82.2075 22.87C81.2208 22.87 80.4742 23.21 79.9675 23.89C79.4675 24.5633 79.2142 25.4667 79.2075 26.6C79.2142 27.7467 79.4742 28.6567 79.9875 29.33C80.5008 29.9967 81.2408 30.33 82.2075 30.33C82.8608 30.33 83.3975 30.18 83.8175 29.88C84.2442 29.5733 84.5708 29.1233 84.7975 28.53L86.9175 29.03C86.5642 30.09 85.9808 30.9 85.1675 31.46C84.3542 32.02 83.3675 32.3 82.2075 32.3ZM96.5347 26.69C96.5347 25.63 96.338 24.7333 95.9447 24C95.5514 23.26 94.838 22.89 93.8047 22.89C92.9847 22.89 92.3214 23.17 91.8147 23.73C91.3147 24.29 91.0647 25.1733 91.0647 26.38V32H88.9447V17.6H90.8147V22.49C91.2214 21.9833 91.7247 21.5933 92.3247 21.32C92.9247 21.0467 93.6114 20.91 94.3847 20.91C95.518 20.91 96.4014 21.1967 97.0347 21.77C97.6747 22.3367 98.1047 23 98.3247 23.76C98.5447 24.52 98.6547 25.2667 98.6547 26V32H96.5347V26.69ZM107.359 29.49H100.859V27.51L105.539 17.6H107.929L103.249 27.51H107.359V23.61H109.479V27.51H110.909V29.49H109.479V32H107.359V29.49ZM119.32 32.3C117.907 32.3 116.687 31.9867 115.66 31.36C114.633 30.7333 113.85 29.8567 113.31 28.73C112.777 27.5967 112.51 26.2867 112.51 24.8C112.51 23.3133 112.777 22.0067 113.31 20.88C113.85 19.7467 114.633 18.8667 115.66 18.24C116.687 17.6133 117.907 17.3 119.32 17.3C120.407 17.3 121.38 17.49 122.24 17.87C123.107 18.2433 123.83 18.78 124.41 19.48C124.997 20.1733 125.433 20.9967 125.72 21.95L123.6 22.52C123.307 21.4933 122.8 20.7 122.08 20.14C121.36 19.5733 120.44 19.29 119.32 19.29C118.313 19.29 117.467 19.52 116.78 19.98C116.093 20.44 115.577 21.0867 115.23 21.92C114.89 22.7533 114.72 23.7333 114.72 24.86C114.72 25.96 114.893 26.92 115.24 27.74C115.587 28.5533 116.103 29.1867 116.79 29.64C117.483 30.0867 118.327 30.31 119.32 30.31C120.44 30.31 121.36 30.03 122.08 29.47C122.8 28.9033 123.307 28.1067 123.6 27.08L125.72 27.65C125.433 28.6033 124.997 29.43 124.41 30.13C123.83 30.8233 123.107 31.36 122.24 31.74C121.38 32.1133 120.407 32.3 119.32 32.3ZM130.76 26.54L126.81 21.2H129.29L131.98 24.91L134.64 21.2H137.12L133.17 26.54L137.22 32H134.73L131.98 28.17L129.21 32H126.72L130.76 26.54ZM144.828 32.3C143.415 32.3 142.195 31.9867 141.168 31.36C140.141 30.7333 139.358 29.8567 138.818 28.73C138.285 27.5967 138.018 26.2867 138.018 24.8C138.018 23.3133 138.285 22.0067 138.818 20.88C139.358 19.7467 140.141 18.8667 141.168 18.24C142.195 17.6133 143.415 17.3 144.828 17.3C145.915 17.3 146.888 17.49 147.748 17.87C148.615 18.2433 149.338 18.78 149.918 19.48C150.505 20.1733 150.941 20.9967 151.228 21.95L149.108 22.52C148.815 21.4933 148.308 20.7 147.588 20.14C146.868 19.5733 145.948 19.29 144.828 19.29C143.821 19.29 142.975 19.52 142.288 19.98C141.601 20.44 141.085 21.0867 140.738 21.92C140.398 22.7533 140.228 23.7333 140.228 24.86C140.228 25.96 140.401 26.92 140.748 27.74C141.095 28.5533 141.611 29.1867 142.298 29.64C142.991 30.0867 143.835 30.31 144.828 30.31C145.948 30.31 146.868 30.03 147.588 29.47C148.308 28.9033 148.815 28.1067 149.108 27.08L151.228 27.65C150.941 28.6033 150.505 29.43 149.918 30.13C149.338 30.8233 148.615 31.36 147.748 31.74C146.888 32.1133 145.915 32.3 144.828 32.3ZM152.791 29.79H155.001V32H152.791V29.79ZM158.514 29.79H160.724V32H158.514V29.79ZM164.237 29.79H166.447V32H164.237V29.79ZM172.439 26.54L168.489 21.2H170.969L173.659 24.91L176.319 21.2H178.799L174.849 26.54L178.899 32H176.409L173.659 28.17L170.889 32H168.399L172.439 26.54ZM180.498 17.6H182.618V26.4L186.858 21.2H189.518L185.038 26.6L189.978 32H187.138L182.618 26.8V32H180.488L180.498 17.6ZM195.056 32.29C193.923 32.29 193.036 32.0067 192.396 31.44C191.763 30.8667 191.336 30.2 191.116 29.44C190.896 28.68 190.786 27.9333 190.786 27.2V21.2H192.906V26.51C192.906 27.57 193.103 28.47 193.496 29.21C193.889 29.9433 194.603 30.31 195.636 30.31C196.456 30.31 197.116 30.03 197.616 29.47C198.123 28.91 198.376 28.0267 198.376 26.82V21.2H200.486V32H198.626V30.71C198.219 31.2167 197.716 31.6067 197.116 31.88C196.516 32.1533 195.829 32.29 195.056 32.29ZM207.561 32.3C206.834 32.3 206.151 32.15 205.511 31.85C204.871 31.5433 204.321 31.12 203.861 30.58C203.407 30.04 203.084 29.4233 202.891 28.73L204.901 28.19C205.007 28.6033 205.197 28.97 205.471 29.29C205.751 29.6033 206.077 29.8467 206.451 30.02C206.831 30.1933 207.221 30.28 207.621 30.28C208.141 30.28 208.614 30.1533 209.041 29.9C209.474 29.6467 209.817 29.3067 210.071 28.88C210.324 28.4467 210.451 27.9767 210.451 27.47C210.451 26.9567 210.321 26.4833 210.061 26.05C209.807 25.6167 209.464 25.2767 209.031 25.03C208.597 24.7767 208.127 24.65 207.621 24.65C207.074 24.65 206.594 24.76 206.181 24.98C205.767 25.2 205.434 25.4767 205.181 25.81L203.361 25.17L203.801 17.6H211.571V19.57H205.671L205.431 23.53C205.784 23.2767 206.174 23.0833 206.601 22.95C207.027 22.8167 207.457 22.75 207.891 22.75C208.777 22.75 209.574 22.9567 210.281 23.37C210.994 23.7767 211.551 24.34 211.951 25.06C212.357 25.78 212.561 26.5833 212.561 27.47C212.561 28.3433 212.331 29.15 211.871 29.89C211.417 30.63 210.807 31.2167 210.041 31.65C209.274 32.0833 208.447 32.3 207.561 32.3ZM218.631 17.6H221.641L226.321 32H224.151L223.081 28.75H217.171L216.121 32H213.951L218.631 17.6ZM222.441 26.79L220.111 19.69L217.811 26.79H222.441ZM226.515 34.82H227.065C227.612 34.82 228.015 34.6867 228.275 34.42C228.535 34.1533 228.665 33.7433 228.665 33.19V21.2H230.765V34.04C230.765 34.92 230.522 35.6 230.035 36.08C229.548 36.56 228.858 36.8 227.965 36.8H226.515V34.82ZM228.665 17.4H230.765V19.43H228.665V17.4ZM237.303 17.6H240.313L244.993 32H242.823L241.753 28.75H235.843L234.793 32H232.623L237.303 17.6ZM241.113 26.79L238.783 19.69L236.483 26.79H241.113Z" fill="white"/>
<path d="M64.96 47.28H69.76V48.624H64.96V47.28ZM74.4221 53.216C73.8515 53.216 73.3128 53.1093 72.8061 52.896C72.3048 52.6773 71.8701 52.368 71.5021 51.968C71.1395 51.5627 70.8781 51.0907 70.7181 50.552L72.3341 50.104C72.4835 50.5893 72.7448 50.9653 73.1181 51.232C73.4915 51.4987 73.9181 51.632 74.3981 51.632C74.8141 51.632 75.1848 51.5387 75.5101 51.352C75.8408 51.16 76.0968 50.896 76.2781 50.56C76.4648 50.224 76.5581 49.8453 76.5581 49.424C76.5581 49.0027 76.4675 48.624 76.2861 48.288C76.1048 47.952 75.8515 47.6907 75.5261 47.504C75.2008 47.312 74.8275 47.216 74.4061 47.216C74.0381 47.216 73.6755 47.312 73.3181 47.504L72.5341 46.184L76.0541 43.072H71.1741V41.48H78.1021V43.072L75.2541 45.808C75.8621 45.888 76.3928 46.096 76.8461 46.432C77.3048 46.7627 77.6568 47.1893 77.9021 47.712C78.1475 48.2293 78.2701 48.8 78.2701 49.424C78.2701 50.144 78.0995 50.792 77.7581 51.368C77.4168 51.944 76.9528 52.3973 76.3661 52.728C75.7795 53.0533 75.1315 53.216 74.4221 53.216ZM80.2984 54.168C80.581 54.1893 80.789 54.1173 80.9224 53.952C81.061 53.792 81.1304 53.5653 81.1304 53.272C81.1304 53.2187 81.125 53.128 81.1144 53H80.1944V51.072H81.9624V53.16C81.9624 53.7253 81.8424 54.1653 81.6024 54.48C81.3677 54.7947 81.0264 54.952 80.5784 54.952C80.4717 54.952 80.3437 54.9387 80.1944 54.912L80.2984 54.168ZM89.875 50.992H84.675V49.408L88.419 41.48H90.331L86.587 49.408H89.875V46.288H91.571V49.408H92.715V50.992H91.571V53H89.875V50.992ZM97.8596 53.216C97.289 53.216 96.7503 53.1093 96.2436 52.896C95.7423 52.6773 95.3076 52.368 94.9396 51.968C94.577 51.5627 94.3156 51.0907 94.1556 50.552L95.7716 50.104C95.921 50.5893 96.1823 50.9653 96.5556 51.232C96.929 51.4987 97.3556 51.632 97.8356 51.632C98.2516 51.632 98.6223 51.5387 98.9476 51.352C99.2783 51.16 99.5343 50.896 99.7156 50.56C99.9023 50.224 99.9956 49.8453 99.9956 49.424C99.9956 49.0027 99.905 48.624 99.7236 48.288C99.5423 47.952 99.289 47.6907 98.9636 47.504C98.6383 47.312 98.265 47.216 97.8436 47.216C97.4756 47.216 97.113 47.312 96.7556 47.504L95.9716 46.184L99.4916 43.072H94.6116V41.48H101.54V43.072L98.6916 45.808C99.2996 45.888 99.8303 46.096 100.284 46.432C100.742 46.7627 101.094 47.1893 101.34 47.712C101.585 48.2293 101.708 48.8 101.708 49.424C101.708 50.144 101.537 50.792 101.196 51.368C100.854 51.944 100.39 52.3973 99.8036 52.728C99.217 53.0533 98.569 53.216 97.8596 53.216ZM105.8 43.32L103.632 44.64V42.776L105.8 41.48H107.504V53H105.8V43.32ZM110.189 51.232H111.957V53H110.189V51.232ZM114.167 51.504L119.183 47.008C119.567 46.6667 119.837 46.336 119.991 46.016C120.151 45.696 120.231 45.36 120.231 45.008C120.231 44.6027 120.141 44.2347 119.959 43.904C119.778 43.568 119.525 43.3067 119.199 43.12C118.874 42.928 118.509 42.832 118.103 42.832C117.687 42.832 117.311 42.9307 116.975 43.128C116.639 43.3253 116.375 43.592 116.183 43.928C115.997 44.2587 115.906 44.616 115.911 45H114.199C114.199 44.264 114.367 43.6133 114.703 43.048C115.039 42.4773 115.506 42.0347 116.103 41.72C116.701 41.4 117.378 41.24 118.135 41.24C118.85 41.24 119.498 41.4053 120.079 41.736C120.661 42.0613 121.117 42.5147 121.447 43.096C121.783 43.672 121.951 44.3173 121.951 45.032C121.951 45.544 121.885 45.984 121.751 46.352C121.618 46.7147 121.421 47.048 121.159 47.352C120.903 47.656 120.543 48.0133 120.079 48.424L116.743 51.4H121.951V52.992H114.159L114.167 51.504ZM127.286 53.24C126.705 53.24 126.158 53.12 125.646 52.88C125.134 52.6347 124.694 52.296 124.326 51.864C123.963 51.432 123.705 50.9387 123.55 50.384L125.158 49.952C125.243 50.2827 125.395 50.576 125.614 50.832C125.838 51.0827 126.099 51.2773 126.398 51.416C126.702 51.5547 127.014 51.624 127.334 51.624C127.75 51.624 128.129 51.5227 128.47 51.32C128.817 51.1173 129.091 50.8453 129.294 50.504C129.497 50.1573 129.598 49.7813 129.598 49.376C129.598 48.9653 129.494 48.5867 129.286 48.24C129.083 47.8933 128.809 47.6213 128.462 47.424C128.115 47.2213 127.739 47.12 127.334 47.12C126.897 47.12 126.513 47.208 126.182 47.384C125.851 47.56 125.585 47.7813 125.382 48.048L123.926 47.536L124.278 41.48H130.494V43.056H125.774L125.582 46.224C125.865 46.0213 126.177 45.8667 126.518 45.76C126.859 45.6533 127.203 45.6 127.55 45.6C128.259 45.6 128.897 45.7653 129.462 46.096C130.033 46.4213 130.478 46.872 130.798 47.448C131.123 48.024 131.286 48.6667 131.286 49.376C131.286 50.0747 131.102 50.72 130.734 51.312C130.371 51.904 129.883 52.3733 129.27 52.72C128.657 53.0667 127.995 53.24 127.286 53.24ZM139.345 41.48H141.753L145.497 53H143.761L142.905 50.4H138.177L137.337 53H135.601L139.345 41.48ZM142.393 48.832L140.529 43.152L138.689 48.832H142.393ZM146.933 41.48H151.589C151.909 41.48 152.205 41.5013 152.477 41.544C153.106 41.64 153.637 41.856 154.069 42.192C154.501 42.5227 154.823 42.944 155.036 43.456C155.255 43.968 155.365 44.5387 155.365 45.168C155.365 45.952 155.197 46.64 154.861 47.232C154.53 47.824 154.045 48.2587 153.405 48.536L155.581 53H153.669L151.661 48.864H148.605V53H146.933V41.48ZM151.525 47.28C151.802 47.28 152.045 47.256 152.253 47.208C152.727 47.0907 153.079 46.84 153.309 46.456C153.543 46.072 153.661 45.6427 153.661 45.168C153.661 44.6933 153.543 44.264 153.309 43.88C153.079 43.496 152.727 43.248 152.253 43.136C152.055 43.0827 151.813 43.056 151.525 43.056H148.605V47.28H151.525Z" fill="white" fill-opacity="0.6"/>
<path d="M432.248 42C431.628 42.12 431.058 42.18 430.538 42.18C429.791 42.18 429.138 42.06 428.578 41.82C428.025 41.58 427.611 41.2033 427.338 40.69C427.171 40.3767 427.061 40.0567 427.008 39.73C426.961 39.3967 426.938 38.9933 426.938 38.52V37.75V32.88H424.868V31.2H426.938V28.2H429.038V31.2H432.248V32.88H429.038V37.65V38.22C429.038 38.56 429.051 38.8367 429.078 39.05C429.105 39.2567 429.165 39.4367 429.258 39.59C429.418 39.8567 429.641 40.05 429.928 40.17C430.221 40.2833 430.578 40.34 430.998 40.34C431.358 40.34 431.775 40.3033 432.248 40.23V42ZM439.135 42.3C438.202 42.3 437.372 42.1133 436.645 41.74C435.918 41.36 435.348 40.83 434.935 40.15C434.528 39.47 434.325 38.6933 434.325 37.82C434.325 37.0933 434.472 36.4233 434.765 35.81C435.058 35.1967 435.492 34.6867 436.065 34.28C435.618 33.9 435.275 33.46 435.035 32.96C434.802 32.4533 434.685 31.9033 434.685 31.31C434.685 30.5033 434.872 29.7967 435.245 29.19C435.625 28.5833 436.152 28.1167 436.825 27.79C437.498 27.4633 438.268 27.3 439.135 27.3C440.002 27.3 440.768 27.4633 441.435 27.79C442.108 28.1167 442.632 28.5833 443.005 29.19C443.385 29.7967 443.575 30.5033 443.575 31.31C443.575 31.9167 443.458 32.47 443.225 32.97C442.998 33.47 442.655 33.9067 442.195 34.28C442.768 34.68 443.205 35.19 443.505 35.81C443.805 36.4233 443.955 37.0933 443.955 37.82C443.955 38.6933 443.748 39.47 443.335 40.15C442.928 40.83 442.358 41.36 441.625 41.74C440.892 42.1133 440.062 42.3 439.135 42.3ZM436.535 37.82C436.535 38.62 436.768 39.2367 437.235 39.67C437.708 40.0967 438.342 40.31 439.135 40.31C439.928 40.31 440.558 40.0933 441.025 39.66C441.498 39.2267 441.735 38.6133 441.735 37.82C441.735 37.02 441.498 36.4033 441.025 35.97C440.558 35.53 439.928 35.31 439.135 35.31C438.342 35.31 437.708 35.53 437.235 35.97C436.768 36.4033 436.535 37.02 436.535 37.82ZM436.905 31.31C436.905 31.9633 437.105 32.46 437.505 32.8C437.912 33.14 438.455 33.31 439.135 33.31C439.815 33.31 440.355 33.14 440.755 32.8C441.155 32.46 441.355 31.9633 441.355 31.31C441.355 30.65 441.155 30.15 440.755 29.81C440.355 29.4633 439.815 29.29 439.135 29.29C438.455 29.29 437.912 29.4633 437.505 29.81C437.105 30.15 436.905 30.65 436.905 31.31ZM446.916 39.79H449.126V42H446.916V39.79ZM455.329 42.3C454.556 42.3 453.896 42.1567 453.349 41.87C452.802 41.5767 452.386 41.1867 452.099 40.7C451.819 40.2067 451.679 39.66 451.679 39.06C451.679 37.4667 452.529 36.4 454.229 35.86C454.742 35.7067 455.322 35.5767 455.969 35.47C456.622 35.3567 457.526 35.22 458.679 35.06L459.009 35.02C458.976 34.26 458.769 33.7067 458.389 33.36C458.009 33.0067 457.402 32.83 456.569 32.83C455.962 32.83 455.429 32.97 454.969 33.25C454.509 33.53 454.192 33.9567 454.019 34.53L452.069 33.93C452.336 32.9767 452.849 32.2333 453.609 31.7C454.376 31.1667 455.369 30.9 456.589 30.9C457.582 30.9 458.432 31.07 459.139 31.41C459.846 31.75 460.362 32.2667 460.689 32.96C460.842 33.2867 460.942 33.6367 460.989 34.01C461.042 34.3767 461.069 34.8233 461.069 35.35V42H459.219V40.43C458.772 41.0633 458.229 41.5333 457.589 41.84C456.956 42.1467 456.202 42.3 455.329 42.3ZM453.749 39.04C453.749 39.4867 453.912 39.8567 454.239 40.15C454.572 40.4433 455.059 40.59 455.699 40.59C456.266 40.59 456.766 40.49 457.199 40.29C457.632 40.0833 457.979 39.8167 458.239 39.49C458.506 39.1633 458.682 38.8167 458.769 38.45C458.902 38.0633 458.976 37.5 458.989 36.76L458.729 36.8C457.756 36.94 457.026 37.0533 456.539 37.14C456.059 37.2267 455.626 37.3267 455.239 37.44C454.772 37.6 454.406 37.8067 454.139 38.06C453.879 38.3133 453.749 38.64 453.749 39.04ZM463.666 31.2H465.526V32.92C465.792 32.4467 466.126 32.0767 466.526 31.81C466.826 31.5833 467.172 31.4133 467.566 31.3C467.959 31.1867 468.359 31.13 468.766 31.13C468.986 31.13 469.229 31.1533 469.496 31.2V33.16C469.269 33.0933 469.006 33.06 468.706 33.06C468.426 33.06 468.149 33.0967 467.876 33.17C467.609 33.2367 467.362 33.3433 467.136 33.49C466.229 34.07 465.776 35.09 465.776 36.55V42H463.666V31.2Z" fill="white"/>
<path d="M0 102C0 82.236 4.236 78 24 78C43.764 78 48 82.236 48 102C48 121.764 43.764 126 24 126C4.236 126 0 121.764 0 102Z" fill="black"/>
<path d="M17 97.6665V109H28.3333" stroke="#14D110" stroke-width="2" stroke-linecap="round" stroke-linejoin="round"/>
<path d="M17.3334 108.667L31 95" stroke="#14D110" stroke-width="2" stroke-linecap="round" stroke-linejoin="round"/>
<path d="M70.09 100.3C69.03 100.3 68.1 100.06 67.3 99.58C66.5 99.0933 65.8833 98.42 65.45 97.56C65.0167 96.6933 64.8 95.7033 64.8 94.59C64.8 93.47 65.02 92.48 65.46 91.62C65.9 90.76 66.52 90.0933 67.32 89.62C68.12 89.14 69.0433 88.9 70.09 88.9C71.15 88.9 72.08 89.14 72.88 89.62C73.6867 90.1 74.3067 90.7733 74.74 91.64C75.1733 92.5 75.39 93.4833 75.39 94.59C75.39 95.71 75.17 96.7033 74.73 97.57C74.2967 98.43 73.68 99.1 72.88 99.58C72.08 100.06 71.15 100.3 70.09 100.3ZM67.02 94.59C67.02 95.75 67.2833 96.6633 67.81 97.33C68.3367 97.9967 69.0967 98.33 70.09 98.33C71.09 98.33 71.8533 97.9933 72.38 97.32C72.9067 96.64 73.17 95.73 73.17 94.59C73.17 93.4367 72.9067 92.53 72.38 91.87C71.8533 91.2033 71.09 90.87 70.09 90.87C69.0767 90.87 68.31 91.2033 67.79 91.87C67.2767 92.5367 67.02 93.4433 67.02 94.59ZM82.2075 100.3C81.1275 100.3 80.1942 100.057 79.4075 99.57C78.6275 99.0833 78.0308 98.41 77.6175 97.55C77.2042 96.69 76.9942 95.7067 76.9875 94.6C76.9942 93.4867 77.2075 92.5 77.6275 91.64C78.0542 90.7733 78.6608 90.1 79.4475 89.62C80.2408 89.14 81.1708 88.9 82.2375 88.9C83.0175 88.9 83.7275 89.0333 84.3675 89.3C85.0142 89.5667 85.5542 89.9467 85.9875 90.44C86.4275 90.9333 86.7375 91.5167 86.9175 92.19L84.8375 92.79C84.6308 92.19 84.2908 91.72 83.8175 91.38C83.3508 91.04 82.8142 90.87 82.2075 90.87C81.2208 90.87 80.4742 91.21 79.9675 91.89C79.4675 92.5633 79.2142 93.4667 79.2075 94.6C79.2142 95.7467 79.4742 96.6567 79.9875 97.33C80.5008 97.9967 81.2408 98.33 82.2075 98.33C82.8608 98.33 83.3975 98.18 83.8175 97.88C84.2442 97.5733 84.5708 97.1233 84.7975 96.53L86.9175 97.03C86.5642 98.09 85.9808 98.9 85.1675 99.46C84.3542 100.02 83.3675 100.3 82.2075 100.3ZM96.5347 94.69C96.5347 93.63 96.338 92.7333 95.9447 92C95.5514 91.26 94.838 90.89 93.8047 90.89C92.9847 90.89 92.3214 91.17 91.8147 91.73C91.3147 92.29 91.0647 93.1733 91.0647 94.38V100H88.9447V85.6H90.8147V90.49C91.2214 89.9833 91.7247 89.5933 92.3247 89.32C92.9247 89.0467 93.6114 88.91 94.3847 88.91C95.518 88.91 96.4014 89.1967 97.0347 89.77C97.6747 90.3367 98.1047 91 98.3247 91.76C98.5447 92.52 98.6547 93.2667 98.6547 94V100H96.5347V94.69ZM107.359 97.49H100.859V95.51L105.539 85.6H107.929L103.249 95.51H107.359V91.61H109.479V95.51H110.909V97.49H109.479V100H107.359V97.49ZM119.32 100.3C117.907 100.3 116.687 99.9867 115.66 99.36C114.633 98.7333 113.85 97.8567 113.31 96.73C112.777 95.5967 112.51 94.2867 112.51 92.8C112.51 91.3133 112.777 90.0067 113.31 88.88C113.85 87.7467 114.633 86.8667 115.66 86.24C116.687 85.6133 117.907 85.3 119.32 85.3C120.407 85.3 121.38 85.49 122.24 85.87C123.107 86.2433 123.83 86.78 124.41 87.48C124.997 88.1733 125.433 88.9967 125.72 89.95L123.6 90.52C123.307 89.4933 122.8 88.7 122.08 88.14C121.36 87.5733 120.44 87.29 119.32 87.29C118.313 87.29 117.467 87.52 116.78 87.98C116.093 88.44 115.577 89.0867 115.23 89.92C114.89 90.7533 114.72 91.7333 114.72 92.86C114.72 93.96 114.893 94.92 115.24 95.74C115.587 96.5533 116.103 97.1867 116.79 97.64C117.483 98.0867 118.327 98.31 119.32 98.31C120.44 98.31 121.36 98.03 122.08 97.47C122.8 96.9033 123.307 96.1067 123.6 95.08L125.72 95.65C125.433 96.6033 124.997 97.43 124.41 98.13C123.83 98.8233 123.107 99.36 122.24 99.74C121.38 100.113 120.407 100.3 119.32 100.3ZM130.76 94.54L126.81 89.2H129.29L131.98 92.91L134.64 89.2H137.12L133.17 94.54L137.22 100H134.73L131.98 96.17L129.21 100H126.72L130.76 94.54ZM144.828 100.3C143.415 100.3 142.195 99.9867 141.168 99.36C140.141 98.7333 139.358 97.8567 138.818 96.73C138.285 95.5967 138.018 94.2867 138.018 92.8C138.018 91.3133 138.285 90.0067 138.818 88.88C139.358 87.7467 140.141 86.8667 141.168 86.24C142.195 85.6133 143.415 85.3 144.828 85.3C145.915 85.3 146.888 85.49 147.748 85.87C148.615 86.2433 149.338 86.78 149.918 87.48C150.505 88.1733 150.941 88.9967 151.228 89.95L149.108 90.52C148.815 89.4933 148.308 88.7 147.588 88.14C146.868 87.5733 145.948 87.29 144.828 87.29C143.821 87.29 142.975 87.52 142.288 87.98C141.601 88.44 141.085 89.0867 140.738 89.92C140.398 90.7533 140.228 91.7333 140.228 92.86C140.228 93.96 140.401 94.92 140.748 95.74C141.095 96.5533 141.611 97.1867 142.298 97.64C142.991 98.0867 143.835 98.31 144.828 98.31C145.948 98.31 146.868 98.03 147.588 97.47C148.308 96.9033 148.815 96.1067 149.108 95.08L151.228 95.65C150.941 96.6033 150.505 97.43 149.918 98.13C149.338 98.8233 148.615 99.36 147.748 99.74C146.888 100.113 145.915 100.3 144.828 100.3ZM152.791 97.79H155.001V100H152.791V97.79ZM158.514 97.79H160.724V100H158.514V97.79ZM164.237 97.79H166.447V100H164.237V97.79ZM172.439 94.54L168.489 89.2H170.969L173.659 92.91L176.319 89.2H178.799L174.849 94.54L178.899 100H176.409L173.659 96.17L170.889 100H168.399L172.439 94.54ZM180.498 85.6H182.618V94.4L186.858 89.2H189.518L185.038 94.6L189.978 100H187.138L182.618 94.8V100H180.488L180.498 85.6ZM195.056 100.29C193.923 100.29 193.036 100.007 192.396 99.44C191.763 98.8667 191.336 98.2 191.116 97.44C190.896 96.68 190.786 95.9333 190.786 95.2V89.2H192.906V94.51C192.906 95.57 193.103 96.47 193.496 97.21C193.889 97.9433 194.603 98.31 195.636 98.31C196.456 98.31 197.116 98.03 197.616 97.47C198.123 96.91 198.376 96.0267 198.376 94.82V89.2H200.486V100H198.626V98.71C198.219 99.2167 197.716 99.6067 197.116 99.88C196.516 100.153 195.829 100.29 195.056 100.29ZM207.561 100.3C206.834 100.3 206.151 100.15 205.511 99.85C204.871 99.5433 204.321 99.12 203.861 98.58C203.407 98.04 203.084 97.4233 202.891 96.73L204.901 96.19C205.007 96.6033 205.197 96.97 205.471 97.29C205.751 97.6033 206.077 97.8467 206.451 98.02C206.831 98.1933 207.221 98.28 207.621 98.28C208.141 98.28 208.614 98.1533 209.041 97.9C209.474 97.6467 209.817 97.3067 210.071 96.88C210.324 96.4467 210.451 95.9767 210.451 95.47C210.451 94.9567 210.321 94.4833 210.061 94.05C209.807 93.6167 209.464 93.2767 209.031 93.03C208.597 92.7767 208.127 92.65 207.621 92.65C207.074 92.65 206.594 92.76 206.181 92.98C205.767 93.2 205.434 93.4767 205.181 93.81L203.361 93.17L203.801 85.6H211.571V87.57H205.671L205.431 91.53C205.784 91.2767 206.174 91.0833 206.601 90.95C207.027 90.8167 207.457 90.75 207.891 90.75C208.777 90.75 209.574 90.9567 210.281 91.37C210.994 91.7767 211.551 92.34 211.951 93.06C212.357 93.78 212.561 94.5833 212.561 95.47C212.561 96.3433 212.331 97.15 211.871 97.89C211.417 98.63 210.807 99.2167 210.041 99.65C209.274 100.083 208.447 100.3 207.561 100.3ZM218.631 85.6H221.641L226.321 100H224.151L223.081 96.75H217.171L216.121 100H213.951L218.631 85.6ZM222.441 94.79L220.111 87.69L217.811 94.79H222.441ZM226.515 102.82H227.065C227.612 102.82 228.015 102.687 228.275 102.42C228.535 102.153 228.665 101.743 228.665 101.19V89.2H230.765V102.04C230.765 102.92 230.522 103.6 230.035 104.08C229.548 104.56 228.858 104.8 227.965 104.8H226.515V102.82ZM228.665 85.4H230.765V87.43H228.665V85.4ZM237.303 85.6H240.313L244.993 100H242.823L241.753 96.75H235.843L234.793 100H232.623L237.303 85.6ZM241.113 94.79L238.783 87.69L236.483 94.79H241.113Z" fill="white"/>
<path d="M64.8 120.992L64.808 119.504L69.824 115.008C70.2293 114.651 70.504 114.309 70.648 113.984C70.7973 113.659 70.872 113.333 70.872 113.008C70.872 112.597 70.7813 112.229 70.6 111.904C70.4187 111.573 70.168 111.312 69.848 111.12C69.528 110.928 69.16 110.832 68.744 110.832C68.3173 110.832 67.936 110.933 67.6 111.136C67.2693 111.333 67.0107 111.597 66.824 111.928C66.6373 112.259 66.5467 112.616 66.552 113H64.84C64.84 112.253 65.008 111.6 65.344 111.04C65.6853 110.475 66.152 110.035 66.744 109.72C67.336 109.4 68.0133 109.24 68.776 109.24C69.5013 109.24 70.152 109.405 70.728 109.736C71.304 110.061 71.7573 110.509 72.088 111.08C72.424 111.651 72.592 112.301 72.592 113.032C72.592 113.56 72.5227 114.008 72.384 114.376C72.2453 114.744 72.0373 115.085 71.76 115.4C71.4827 115.715 71.136 116.056 70.72 116.424L66.848 119.88L66.664 119.4H72.592V120.992H64.8ZM79.0781 121V118.992H73.8781V117.408L77.6221 109.48H79.5341L75.7901 117.408H79.0781V114.288H80.7741V117.408H81.9181V118.992H80.7741V121H79.0781ZM87.0628 121.216C86.4921 121.216 85.9561 121.109 85.4548 120.896C84.9534 120.677 84.5188 120.368 84.1508 119.968C83.7881 119.568 83.5241 119.096 83.3588 118.552L84.9748 118.104C85.1294 118.6 85.3988 118.981 85.7828 119.248C86.1668 119.509 86.5934 119.637 87.0628 119.632C87.4841 119.627 87.8548 119.528 88.1748 119.336C88.4948 119.144 88.7454 118.885 88.9268 118.56C89.1081 118.229 89.1988 117.851 89.1988 117.424C89.1988 116.784 88.9988 116.256 88.5988 115.84C88.2041 115.424 87.6868 115.216 87.0468 115.216C86.8654 115.216 86.6788 115.243 86.4868 115.296C86.3001 115.349 86.1241 115.419 85.9588 115.504L85.1748 114.184L89.2388 110.592L89.4148 111.072H83.8148V109.48H90.7428V111.072L87.3668 114.32L87.3508 113.776C88.0761 113.776 88.7054 113.939 89.2388 114.264C89.7721 114.584 90.1828 115.021 90.4708 115.576C90.7641 116.125 90.9108 116.741 90.9108 117.424C90.9108 118.16 90.7374 118.813 90.3908 119.384C90.0494 119.955 89.5881 120.403 89.0068 120.728C88.4308 121.053 87.7828 121.216 87.0628 121.216ZM98.9021 121L95.1581 109.48H96.8941L100.086 119.312L103.318 109.48H105.054L101.31 121H98.9021ZM106.261 121V109.48H110.917C111.029 109.48 111.167 109.485 111.333 109.496C111.498 109.501 111.655 109.517 111.805 109.544C112.445 109.645 112.978 109.864 113.405 110.2C113.837 110.536 114.159 110.96 114.373 111.472C114.586 111.984 114.693 112.549 114.693 113.168C114.693 114.085 114.458 114.877 113.989 115.544C113.519 116.205 112.815 116.619 111.877 116.784L111.197 116.864H107.933V121H106.261ZM112.997 121L110.725 116.312L112.413 115.88L114.909 121H112.997ZM107.933 115.28H110.853C110.959 115.28 111.077 115.275 111.205 115.264C111.338 115.253 111.463 115.235 111.581 115.208C111.922 115.128 112.197 114.981 112.405 114.768C112.613 114.549 112.762 114.299 112.853 114.016C112.943 113.733 112.989 113.451 112.989 113.168C112.989 112.885 112.943 112.605 112.853 112.328C112.762 112.045 112.613 111.797 112.405 111.584C112.197 111.365 111.922 111.216 111.581 111.136C111.463 111.104 111.338 111.083 111.205 111.072C111.077 111.061 110.959 111.056 110.853 111.056H107.933V115.28ZM119.539 121V111.056H115.707V109.48H125.043V111.056H121.211V121H119.539Z" fill="white" fill-opacity="0.6"/>
<path d="M323.373 103.27C323.373 102.763 323.283 102.323 323.103 101.95C322.923 101.577 322.667 101.29 322.333 101.09C322.007 100.89 321.627 100.79 321.193 100.79C320.787 100.79 320.417 100.883 320.083 101.07C319.75 101.257 319.483 101.537 319.283 101.91C319.09 102.277 318.993 102.723 318.993 103.25L318.983 110H316.893L316.903 103.31C316.903 102.797 316.813 102.35 316.633 101.97C316.453 101.59 316.197 101.3 315.863 101.1C315.537 100.893 315.153 100.79 314.713 100.79C314.28 100.79 313.897 100.893 313.563 101.1C313.23 101.307 312.97 101.597 312.783 101.97C312.603 102.337 312.513 102.763 312.513 103.25V110H310.413V99.2H312.273V100.36C312.627 99.9133 313.07 99.5633 313.603 99.31C314.143 99.0567 314.733 98.93 315.373 98.93C316.107 98.93 316.74 99.0833 317.273 99.39C317.807 99.6967 318.22 100.127 318.513 100.68C318.847 100.133 319.3 99.7067 319.873 99.4C320.453 99.0867 321.093 98.93 321.793 98.93C322.553 98.93 323.21 99.09 323.763 99.41C324.317 99.7233 324.737 100.17 325.023 100.75C325.317 101.323 325.463 101.997 325.463 102.77L325.453 110H323.363L323.373 103.27ZM331.11 110.3C330.337 110.3 329.677 110.157 329.13 109.87C328.583 109.577 328.167 109.187 327.88 108.7C327.6 108.207 327.46 107.66 327.46 107.06C327.46 105.467 328.31 104.4 330.01 103.86C330.523 103.707 331.103 103.577 331.75 103.47C332.403 103.357 333.307 103.22 334.46 103.06L334.79 103.02C334.757 102.26 334.55 101.707 334.17 101.36C333.79 101.007 333.183 100.83 332.35 100.83C331.743 100.83 331.21 100.97 330.75 101.25C330.29 101.53 329.973 101.957 329.8 102.53L327.85 101.93C328.117 100.977 328.63 100.233 329.39 99.7C330.157 99.1667 331.15 98.9 332.37 98.9C333.363 98.9 334.213 99.07 334.92 99.41C335.627 99.75 336.143 100.267 336.47 100.96C336.623 101.287 336.723 101.637 336.77 102.01C336.823 102.377 336.85 102.823 336.85 103.35V110H335V108.43C334.553 109.063 334.01 109.533 333.37 109.84C332.737 110.147 331.983 110.3 331.11 110.3ZM329.53 107.04C329.53 107.487 329.693 107.857 330.02 108.15C330.353 108.443 330.84 108.59 331.48 108.59C332.047 108.59 332.547 108.49 332.98 108.29C333.413 108.083 333.76 107.817 334.02 107.49C334.287 107.163 334.463 106.817 334.55 106.45C334.683 106.063 334.757 105.5 334.77 104.76L334.51 104.8C333.537 104.94 332.807 105.053 332.32 105.14C331.84 105.227 331.407 105.327 331.02 105.44C330.553 105.6 330.187 105.807 329.92 106.06C329.66 106.313 329.53 106.64 329.53 107.04ZM339.447 99.2H341.307V100.92C341.574 100.447 341.907 100.077 342.307 99.81C342.607 99.5833 342.954 99.4133 343.347 99.3C343.74 99.1867 344.14 99.13 344.547 99.13C344.767 99.13 345.01 99.1533 345.277 99.2V101.16C345.05 101.093 344.787 101.06 344.487 101.06C344.207 101.06 343.93 101.097 343.657 101.17C343.39 101.237 343.144 101.343 342.917 101.49C342.01 102.07 341.557 103.09 341.557 104.55V110H339.447V99.2ZM353.361 110C352.741 110.12 352.171 110.18 351.651 110.18C350.905 110.18 350.251 110.06 349.691 109.82C349.138 109.58 348.725 109.203 348.451 108.69C348.285 108.377 348.175 108.057 348.121 107.73C348.075 107.397 348.051 106.993 348.051 106.52V105.75V100.88H345.981V99.2H348.051V96.2H350.151V99.2H353.361V100.88H350.151V105.65V106.22C350.151 106.56 350.165 106.837 350.191 107.05C350.218 107.257 350.278 107.437 350.371 107.59C350.531 107.857 350.755 108.05 351.041 108.17C351.335 108.283 351.691 108.34 352.111 108.34C352.471 108.34 352.888 108.303 353.361 108.23V110ZM359.82 110.3C358.76 110.3 357.83 110.06 357.03 109.58C356.23 109.093 355.614 108.42 355.18 107.56C354.747 106.693 354.53 105.703 354.53 104.59C354.53 103.47 354.75 102.48 355.19 101.62C355.63 100.76 356.25 100.093 357.05 99.62C357.85 99.14 358.774 98.9 359.82 98.9C360.88 98.9 361.81 99.14 362.61 99.62C363.417 100.1 364.037 100.773 364.47 101.64C364.904 102.5 365.12 103.483 365.12 104.59C365.12 105.71 364.9 106.703 364.46 107.57C364.027 108.43 363.41 109.1 362.61 109.58C361.81 110.06 360.88 110.3 359.82 110.3ZM356.75 104.59C356.75 105.75 357.014 106.663 357.54 107.33C358.067 107.997 358.827 108.33 359.82 108.33C360.82 108.33 361.584 107.993 362.11 107.32C362.637 106.64 362.9 105.73 362.9 104.59C362.9 103.437 362.637 102.53 362.11 101.87C361.584 101.203 360.82 100.87 359.82 100.87C358.807 100.87 358.04 101.203 357.52 101.87C357.007 102.537 356.75 103.443 356.75 104.59ZM374.898 104.69C374.898 103.63 374.701 102.733 374.308 102C373.915 101.26 373.201 100.89 372.168 100.89C371.348 100.89 370.685 101.17 370.178 101.73C369.678 102.29 369.428 103.173 369.428 104.38V110H367.308V99.2H369.178V100.49C369.585 99.9833 370.088 99.5933 370.688 99.32C371.288 99.0467 371.975 98.91 372.748 98.91C373.881 98.91 374.765 99.1967 375.398 99.77C376.038 100.337 376.468 101 376.688 101.76C376.908 102.52 377.018 103.267 377.018 104V110H374.898V104.69ZM379.823 95.6H381.913V110H379.823V95.6ZM389.706 110.3C388.639 110.3 387.699 110.067 386.886 109.6C386.072 109.127 385.439 108.467 384.986 107.62C384.539 106.767 384.316 105.79 384.316 104.69C384.316 103.523 384.536 102.503 384.976 101.63C385.416 100.757 386.036 100.083 386.836 99.61C387.636 99.1367 388.559 98.9 389.606 98.9C390.639 98.9 391.532 99.13 392.286 99.59C393.039 100.05 393.616 100.71 394.016 101.57C394.422 102.423 394.626 103.433 394.626 104.6C394.626 104.727 394.619 104.923 394.606 105.19H386.556C386.642 106.197 386.946 106.973 387.466 107.52C387.986 108.06 388.699 108.33 389.606 108.33C390.252 108.33 390.816 108.183 391.296 107.89C391.776 107.597 392.149 107.17 392.416 106.61L394.466 107.26C394.052 108.213 393.419 108.96 392.566 109.5C391.712 110.033 390.759 110.3 389.706 110.3ZM392.466 103.56C392.352 102.607 392.066 101.9 391.606 101.44C391.152 100.98 390.512 100.75 389.686 100.75C388.799 100.75 388.096 100.99 387.576 101.47C387.062 101.943 386.739 102.64 386.606 103.56H392.466ZM401.139 110.3C400.159 110.3 399.299 110.053 398.559 109.56C397.819 109.06 397.249 108.377 396.849 107.51C396.449 106.643 396.249 105.67 396.249 104.59C396.249 103.503 396.449 102.53 396.849 101.67C397.256 100.803 397.829 100.127 398.569 99.64C399.316 99.1467 400.186 98.9 401.179 98.9C402.353 98.9 403.333 99.2467 404.119 99.94V95.6H406.219V110H404.359V109.02C403.959 109.433 403.489 109.75 402.949 109.97C402.409 110.19 401.806 110.3 401.139 110.3ZM398.469 104.59C398.469 105.323 398.579 105.977 398.799 106.55C399.019 107.123 399.349 107.577 399.789 107.91C400.236 108.243 400.783 108.41 401.429 108.41C402.416 108.41 403.149 108.07 403.629 107.39C404.116 106.703 404.359 105.77 404.359 104.59C404.359 103.423 404.119 102.5 403.639 101.82C403.166 101.133 402.453 100.79 401.499 100.79C400.826 100.79 400.263 100.957 399.809 101.29C399.356 101.617 399.019 102.067 398.799 102.64C398.579 103.213 398.469 103.863 398.469 104.59ZM413.807 110.3C412.741 110.3 411.801 110.067 410.987 109.6C410.174 109.127 409.541 108.467 409.087 107.62C408.641 106.767 408.417 105.79 408.417 104.69C408.417 103.523 408.637 102.503 409.077 101.63C409.517 100.757 410.137 100.083 410.937 99.61C411.737 99.1367 412.661 98.9 413.707 98.9C414.741 98.9 415.634 99.13 416.387 99.59C417.141 100.05 417.717 100.71 418.117 101.57C418.524 102.423 418.727 103.433 418.727 104.6C418.727 104.727 418.721 104.923 418.707 105.19H410.657C410.744 106.197 411.047 106.973 411.567 107.52C412.087 108.06 412.801 108.33 413.707 108.33C414.354 108.33 414.917 108.183 415.397 107.89C415.877 107.597 416.251 107.17 416.517 106.61L418.567 107.26C418.154 108.213 417.521 108.96 416.667 109.5C415.814 110.033 414.861 110.3 413.807 110.3ZM416.567 103.56C416.454 102.607 416.167 101.9 415.707 101.44C415.254 100.98 414.614 100.75 413.787 100.75C412.901 100.75 412.197 100.99 411.677 101.47C411.164 101.943 410.841 102.64 410.707 103.56H416.567ZM420.951 99.2H422.811V100.92C423.077 100.447 423.411 100.077 423.811 99.81C424.111 99.5833 424.457 99.4133 424.851 99.3C425.244 99.1867 425.644 99.13 426.051 99.13C426.271 99.13 426.514 99.1533 426.781 99.2V101.16C426.554 101.093 426.291 101.06 425.991 101.06C425.711 101.06 425.434 101.097 425.161 101.17C424.894 101.237 424.647 101.343 424.421 101.49C423.514 102.07 423.061 103.09 423.061 104.55V110H420.951V99.2ZM433.28 110.3C432.213 110.3 431.273 110.067 430.46 109.6C429.647 109.127 429.013 108.467 428.56 107.62C428.113 106.767 427.89 105.79 427.89 104.69C427.89 103.523 428.11 102.503 428.55 101.63C428.99 100.757 429.61 100.083 430.41 99.61C431.21 99.1367 432.133 98.9 433.18 98.9C434.213 98.9 435.107 99.13 435.86 99.59C436.613 100.05 437.19 100.71 437.59 101.57C437.997 102.423 438.2 103.433 438.2 104.6C438.2 104.727 438.193 104.923 438.18 105.19H430.13C430.217 106.197 430.52 106.973 431.04 107.52C431.56 108.06 432.273 108.33 433.18 108.33C433.827 108.33 434.39 108.183 434.87 107.89C435.35 107.597 435.723 107.17 435.99 106.61L438.04 107.26C437.627 108.213 436.993 108.96 436.14 109.5C435.287 110.033 434.333 110.3 433.28 110.3ZM436.04 103.56C435.927 102.607 435.64 101.9 435.18 101.44C434.727 100.98 434.087 100.75 433.26 100.75C432.373 100.75 431.67 100.99 431.15 101.47C430.637 101.943 430.313 102.64 430.18 103.56H436.04ZM440.423 99.2H442.283V100.92C442.55 100.447 442.883 100.077 443.283 99.81C443.583 99.5833 443.93 99.4133 444.323 99.3C444.717 99.1867 445.117 99.13 445.523 99.13C445.743 99.13 445.987 99.1533 446.253 99.2V101.16C446.027 101.093 445.763 101.06 445.463 101.06C445.183 101.06 444.907 101.097 444.633 101.17C444.367 101.237 444.12 101.343 443.893 101.49C442.987 102.07 442.533 103.09 442.533 104.55V110H440.423V99.2ZM446.916 107.79H449.126V110H446.916V107.79ZM455.329 110.3C454.556 110.3 453.896 110.157 453.349 109.87C452.802 109.577 452.386 109.187 452.099 108.7C451.819 108.207 451.679 107.66 451.679 107.06C451.679 105.467 452.529 104.4 454.229 103.86C454.742 103.707 455.322 103.577 455.969 103.47C456.622 103.357 457.526 103.22 458.679 103.06L459.009 103.02C458.976 102.26 458.769 101.707 458.389 101.36C458.009 101.007 457.402 100.83 456.569 100.83C455.962 100.83 455.429 100.97 454.969 101.25C454.509 101.53 454.192 101.957 454.019 102.53L452.069 101.93C452.336 100.977 452.849 100.233 453.609 99.7C454.376 99.1667 455.369 98.9 456.589 98.9C457.582 98.9 458.432 99.07 459.139 99.41C459.846 99.75 460.362 100.267 460.689 100.96C460.842 101.287 460.942 101.637 460.989 102.01C461.042 102.377 461.069 102.823 461.069 103.35V110H459.219V108.43C458.772 109.063 458.229 109.533 457.589 109.84C456.956 110.147 456.202 110.3 455.329 110.3ZM453.749 107.04C453.749 107.487 453.912 107.857 454.239 108.15C454.572 108.443 455.059 108.59 455.699 108.59C456.266 108.59 456.766 108.49 457.199 108.29C457.632 108.083 457.979 107.817 458.239 107.49C458.506 107.163 458.682 106.817 458.769 106.45C458.902 106.063 458.976 105.5 458.989 104.76L458.729 104.8C457.756 104.94 457.026 105.053 456.539 105.14C456.059 105.227 455.626 105.327 455.239 105.44C454.772 105.6 454.406 105.807 454.139 106.06C453.879 106.313 453.749 106.64 453.749 107.04ZM463.666 99.2H465.526V100.92C465.792 100.447 466.126 100.077 466.526 99.81C466.826 99.5833 467.172 99.4133 467.566 99.3C467.959 99.1867 468.359 99.13 468.766 99.13C468.986 99.13 469.229 99.1533 469.496 99.2V101.16C469.269 101.093 469.006 101.06 468.706 101.06C468.426 101.06 468.149 101.097 467.876 101.17C467.609 101.237 467.362 101.343 467.136 101.49C466.229 102.07 465.776 103.09 465.776 104.55V110H463.666V99.2Z" fill="white"/>
<path d="M0 170C0 150.236 4.236 146 24 146C43.764 146 48 150.236 48 170C48 189.764 43.764 194 24 194C4.236 194 0 189.764 0 170Z" fill="black"/>
<path d="M14.3334 163C14.3334 161.527 15.5273 160.333 17 160.333H31C32.4728 160.333 33.6667 161.527 33.6667 163V177C33.6667 178.473 32.4728 179.667 31 179.667H17C15.5273 179.667 14.3334 178.473 14.3334 177V163Z" stroke="#AB9AFF" stroke-width="1.5" stroke-linecap="round" stroke-linejoin="round"/>
<path d="M19.6666 168.333L23 171.333L19.6666 174.333" stroke="#AB9AFF" stroke-width="1.5" stroke-linecap="round" stroke-linejoin="round"/>
<path d="M70.09 168.3C69.03 168.3 68.1 168.06 67.3 167.58C66.5 167.093 65.8833 166.42 65.45 165.56C65.0167 164.693 64.8 163.703 64.8 162.59C64.8 161.47 65.02 160.48 65.46 159.62C65.9 158.76 66.52 158.093 67.32 157.62C68.12 157.14 69.0433 156.9 70.09 156.9C71.15 156.9 72.08 157.14 72.88 157.62C73.6867 158.1 74.3067 158.773 74.74 159.64C75.1733 160.5 75.39 161.483 75.39 162.59C75.39 163.71 75.17 164.703 74.73 165.57C74.2967 166.43 73.68 167.1 72.88 167.58C72.08 168.06 71.15 168.3 70.09 168.3ZM67.02 162.59C67.02 163.75 67.2833 164.663 67.81 165.33C68.3367 165.997 69.0967 166.33 70.09 166.33C71.09 166.33 71.8533 165.993 72.38 165.32C72.9067 164.64 73.17 163.73 73.17 162.59C73.17 161.437 72.9067 160.53 72.38 159.87C71.8533 159.203 71.09 158.87 70.09 158.87C69.0767 158.87 68.31 159.203 67.79 159.87C67.2767 160.537 67.02 161.443 67.02 162.59ZM82.2075 168.3C81.1275 168.3 80.1942 168.057 79.4075 167.57C78.6275 167.083 78.0308 166.41 77.6175 165.55C77.2042 164.69 76.9942 163.707 76.9875 162.6C76.9942 161.487 77.2075 160.5 77.6275 159.64C78.0542 158.773 78.6608 158.1 79.4475 157.62C80.2408 157.14 81.1708 156.9 82.2375 156.9C83.0175 156.9 83.7275 157.033 84.3675 157.3C85.0142 157.567 85.5542 157.947 85.9875 158.44C86.4275 158.933 86.7375 159.517 86.9175 160.19L84.8375 160.79C84.6308 160.19 84.2908 159.72 83.8175 159.38C83.3508 159.04 82.8142 158.87 82.2075 158.87C81.2208 158.87 80.4742 159.21 79.9675 159.89C79.4675 160.563 79.2142 161.467 79.2075 162.6C79.2142 163.747 79.4742 164.657 79.9875 165.33C80.5008 165.997 81.2408 166.33 82.2075 166.33C82.8608 166.33 83.3975 166.18 83.8175 165.88C84.2442 165.573 84.5708 165.123 84.7975 164.53L86.9175 165.03C86.5642 166.09 85.9808 166.9 85.1675 167.46C84.3542 168.02 83.3675 168.3 82.2075 168.3ZM96.5347 162.69C96.5347 161.63 96.338 160.733 95.9447 160C95.5514 159.26 94.838 158.89 93.8047 158.89C92.9847 158.89 92.3214 159.17 91.8147 159.73C91.3147 160.29 91.0647 161.173 91.0647 162.38V168H88.9447V153.6H90.8147V158.49C91.2214 157.983 91.7247 157.593 92.3247 157.32C92.9247 157.047 93.6114 156.91 94.3847 156.91C95.518 156.91 96.4014 157.197 97.0347 157.77C97.6747 158.337 98.1047 159 98.3247 159.76C98.5447 160.52 98.6547 161.267 98.6547 162V168H96.5347V162.69ZM107.359 165.49H100.859V163.51L105.539 153.6H107.929L103.249 163.51H107.359V159.61H109.479V163.51H110.909V165.49H109.479V168H107.359V165.49ZM119.32 168.3C117.907 168.3 116.687 167.987 115.66 167.36C114.633 166.733 113.85 165.857 113.31 164.73C112.777 163.597 112.51 162.287 112.51 160.8C112.51 159.313 112.777 158.007 113.31 156.88C113.85 155.747 114.633 154.867 115.66 154.24C116.687 153.613 117.907 153.3 119.32 153.3C120.407 153.3 121.38 153.49 122.24 153.87C123.107 154.243 123.83 154.78 124.41 155.48C124.997 156.173 125.433 156.997 125.72 157.95L123.6 158.52C123.307 157.493 122.8 156.7 122.08 156.14C121.36 155.573 120.44 155.29 119.32 155.29C118.313 155.29 117.467 155.52 116.78 155.98C116.093 156.44 115.577 157.087 115.23 157.92C114.89 158.753 114.72 159.733 114.72 160.86C114.72 161.96 114.893 162.92 115.24 163.74C115.587 164.553 116.103 165.187 116.79 165.64C117.483 166.087 118.327 166.31 119.32 166.31C120.44 166.31 121.36 166.03 122.08 165.47C122.8 164.903 123.307 164.107 123.6 163.08L125.72 163.65C125.433 164.603 124.997 165.43 124.41 166.13C123.83 166.823 123.107 167.36 122.24 167.74C121.38 168.113 120.407 168.3 119.32 168.3ZM130.76 162.54L126.81 157.2H129.29L131.98 160.91L134.64 157.2H137.12L133.17 162.54L137.22 168H134.73L131.98 164.17L129.21 168H126.72L130.76 162.54ZM144.828 168.3C143.415 168.3 142.195 167.987 141.168 167.36C140.141 166.733 139.358 165.857 138.818 164.73C138.285 163.597 138.018 162.287 138.018 160.8C138.018 159.313 138.285 158.007 138.818 156.88C139.358 155.747 140.141 154.867 141.168 154.24C142.195 153.613 143.415 153.3 144.828 153.3C145.915 153.3 146.888 153.49 147.748 153.87C148.615 154.243 149.338 154.78 149.918 155.48C150.505 156.173 150.941 156.997 151.228 157.95L149.108 158.52C148.815 157.493 148.308 156.7 147.588 156.14C146.868 155.573 145.948 155.29 144.828 155.29C143.821 155.29 142.975 155.52 142.288 155.98C141.601 156.44 141.085 157.087 140.738 157.92C140.398 158.753 140.228 159.733 140.228 160.86C140.228 161.96 140.401 162.92 140.748 163.74C141.095 164.553 141.611 165.187 142.298 165.64C142.991 166.087 143.835 166.31 144.828 166.31C145.948 166.31 146.868 166.03 147.588 165.47C148.308 164.903 148.815 164.107 149.108 163.08L151.228 163.65C150.941 164.603 150.505 165.43 149.918 166.13C149.338 166.823 148.615 167.36 147.748 167.74C146.888 168.113 145.915 168.3 144.828 168.3ZM152.791 165.79H155.001V168H152.791V165.79ZM158.514 165.79H160.724V168H158.514V165.79ZM164.237 165.79H166.447V168H164.237V165.79ZM172.439 162.54L168.489 157.2H170.969L173.659 160.91L176.319 157.2H178.799L174.849 162.54L178.899 168H176.409L173.659 164.17L170.889 168H168.399L172.439 162.54ZM180.498 153.6H182.618V162.4L186.858 157.2H189.518L185.038 162.6L189.978 168H187.138L182.618 162.8V168H180.488L180.498 153.6ZM195.056 168.29C193.923 168.29 193.036 168.007 192.396 167.44C191.763 166.867 191.336 166.2 191.116 165.44C190.896 164.68 190.786 163.933 190.786 163.2V157.2H192.906V162.51C192.906 163.57 193.103 164.47 193.496 165.21C193.889 165.943 194.603 166.31 195.636 166.31C196.456 166.31 197.116 166.03 197.616 165.47C198.123 164.91 198.376 164.027 198.376 162.82V157.2H200.486V168H198.626V166.71C198.219 167.217 197.716 167.607 197.116 167.88C196.516 168.153 195.829 168.29 195.056 168.29ZM207.561 168.3C206.834 168.3 206.151 168.15 205.511 167.85C204.871 167.543 204.321 167.12 203.861 166.58C203.407 166.04 203.084 165.423 202.891 164.73L204.901 164.19C205.007 164.603 205.197 164.97 205.471 165.29C205.751 165.603 206.077 165.847 206.451 166.02C206.831 166.193 207.221 166.28 207.621 166.28C208.141 166.28 208.614 166.153 209.041 165.9C209.474 165.647 209.817 165.307 210.071 164.88C210.324 164.447 210.451 163.977 210.451 163.47C210.451 162.957 210.321 162.483 210.061 162.05C209.807 161.617 209.464 161.277 209.031 161.03C208.597 160.777 208.127 160.65 207.621 160.65C207.074 160.65 206.594 160.76 206.181 160.98C205.767 161.2 205.434 161.477 205.181 161.81L203.361 161.17L203.801 153.6H211.571V155.57H205.671L205.431 159.53C205.784 159.277 206.174 159.083 206.601 158.95C207.027 158.817 207.457 158.75 207.891 158.75C208.777 158.75 209.574 158.957 210.281 159.37C210.994 159.777 211.551 160.34 211.951 161.06C212.357 161.78 212.561 162.583 212.561 163.47C212.561 164.343 212.331 165.15 211.871 165.89C211.417 166.63 210.807 167.217 210.041 167.65C209.274 168.083 208.447 168.3 207.561 168.3ZM218.631 153.6H221.641L226.321 168H224.151L223.081 164.75H217.171L216.121 168H213.951L218.631 153.6ZM222.441 162.79L220.111 155.69L217.811 162.79H222.441ZM226.515 170.82H227.065C227.612 170.82 228.015 170.687 228.275 170.42C228.535 170.153 228.665 169.743 228.665 169.19V157.2H230.765V170.04C230.765 170.92 230.522 171.6 230.035 172.08C229.548 172.56 228.858 172.8 227.965 172.8H226.515V170.82ZM228.665 153.4H230.765V155.43H228.665V153.4ZM237.303 153.6H240.313L244.993 168H242.823L241.753 164.75H235.843L234.793 168H232.623L237.303 153.6ZM241.113 162.79L238.783 155.69L236.483 162.79H241.113Z" fill="white"/>
<path d="M69.136 189.24C68.352 189.24 67.6587 189.069 67.056 188.728C66.4533 188.381 65.9787 187.907 65.632 187.304C65.2907 186.701 65.12 186.008 65.12 185.224V181.256C65.12 180.472 65.2907 179.779 65.632 179.176C65.9787 178.573 66.4533 178.101 67.056 177.76C67.6587 177.413 68.352 177.24 69.136 177.24C69.92 177.24 70.6133 177.413 71.216 177.76C71.8187 178.101 72.2907 178.573 72.632 179.176C72.9787 179.779 73.152 180.472 73.152 181.256V185.224C73.152 186.008 72.9787 186.701 72.632 187.304C72.2907 187.907 71.8187 188.381 71.216 188.728C70.6133 189.069 69.92 189.24 69.136 189.24ZM69.136 187.64C69.5627 187.64 69.9493 187.539 70.296 187.336C70.648 187.128 70.928 186.851 71.136 186.504C71.344 186.152 71.448 185.76 71.448 185.328V181.136C71.448 180.709 71.344 180.323 71.136 179.976C70.928 179.624 70.648 179.347 70.296 179.144C69.9493 178.936 69.5627 178.832 69.136 178.832C68.7093 178.832 68.32 178.936 67.968 179.144C67.6213 179.347 67.344 179.624 67.136 179.976C66.928 180.323 66.824 180.709 66.824 181.136V185.328C66.824 185.76 66.928 186.152 67.136 186.504C67.344 186.851 67.6213 187.128 67.968 187.336C68.32 187.539 68.7093 187.64 69.136 187.64ZM75.6736 189V187.232H77.4416V189H75.6736ZM83.9798 189.24C83.1958 189.24 82.5024 189.069 81.8998 188.728C81.2971 188.381 80.8224 187.907 80.4758 187.304C80.1344 186.701 79.9638 186.008 79.9638 185.224V181.256C79.9638 180.472 80.1344 179.779 80.4758 179.176C80.8224 178.573 81.2971 178.101 81.8998 177.76C82.5024 177.413 83.1958 177.24 83.9798 177.24C84.7638 177.24 85.4571 177.413 86.0598 177.76C86.6624 178.101 87.1344 178.573 87.4757 179.176C87.8224 179.779 87.9958 180.472 87.9958 181.256V185.224C87.9958 186.008 87.8224 186.701 87.4757 187.304C87.1344 187.907 86.6624 188.381 86.0598 188.728C85.4571 189.069 84.7638 189.24 83.9798 189.24ZM83.9798 187.64C84.4064 187.64 84.7931 187.539 85.1398 187.336C85.4918 187.128 85.7718 186.851 85.9798 186.504C86.1878 186.152 86.2918 185.76 86.2918 185.328V181.136C86.2918 180.709 86.1878 180.323 85.9798 179.976C85.7718 179.624 85.4918 179.347 85.1398 179.144C84.7931 178.936 84.4064 178.832 83.9798 178.832C83.5531 178.832 83.1638 178.936 82.8118 179.144C82.4651 179.347 82.1878 179.624 81.9798 179.976C81.7718 180.323 81.6678 180.709 81.6678 181.136V185.328C81.6678 185.76 81.7718 186.152 81.9798 186.504C82.1878 186.851 82.4651 187.128 82.8118 187.336C83.1638 187.539 83.5531 187.64 83.9798 187.64ZM94.2454 189.24C93.4614 189.24 92.768 189.069 92.1654 188.728C91.5627 188.381 91.088 187.907 90.7414 187.304C90.4 186.701 90.2294 186.008 90.2294 185.224V181.256C90.2294 180.472 90.4 179.779 90.7414 179.176C91.088 178.573 91.5627 178.101 92.1654 177.76C92.768 177.413 93.4614 177.24 94.2454 177.24C95.0294 177.24 95.7227 177.413 96.3254 177.76C96.928 178.101 97.4 178.573 97.7414 179.176C98.088 179.779 98.2614 180.472 98.2614 181.256V185.224C98.2614 186.008 98.088 186.701 97.7414 187.304C97.4 187.907 96.928 188.381 96.3254 188.728C95.7227 189.069 95.0294 189.24 94.2454 189.24ZM94.2454 187.64C94.672 187.64 95.0587 187.539 95.4054 187.336C95.7574 187.128 96.0374 186.851 96.2454 186.504C96.4534 186.152 96.5574 185.76 96.5574 185.328V181.136C96.5574 180.709 96.4534 180.323 96.2454 179.976C96.0374 179.624 95.7574 179.347 95.4054 179.144C95.0587 178.936 94.672 178.832 94.2454 178.832C93.8187 178.832 93.4294 178.936 93.0774 179.144C92.7307 179.347 92.4534 179.624 92.2454 179.976C92.0374 180.323 91.9334 180.709 91.9334 181.136V185.328C91.9334 185.76 92.0374 186.152 92.2454 186.504C92.4534 186.851 92.7307 187.128 93.0774 187.336C93.4294 187.539 93.8187 187.64 94.2454 187.64ZM104.511 189.24C103.727 189.24 103.034 189.069 102.431 188.728C101.828 188.381 101.354 187.907 101.007 187.304C100.666 186.701 100.495 186.008 100.495 185.224V181.256C100.495 180.472 100.666 179.779 101.007 179.176C101.354 178.573 101.828 178.101 102.431 177.76C103.034 177.413 103.727 177.24 104.511 177.24C105.295 177.24 105.988 177.413 106.591 177.76C107.194 178.101 107.666 178.573 108.007 179.176C108.354 179.779 108.527 180.472 108.527 181.256V185.224C108.527 186.008 108.354 186.701 108.007 187.304C107.666 187.907 107.194 188.381 106.591 188.728C105.988 189.069 105.295 189.24 104.511 189.24ZM104.511 187.64C104.938 187.64 105.324 187.539 105.671 187.336C106.023 187.128 106.303 186.851 106.511 186.504C106.719 186.152 106.823 185.76 106.823 185.328V181.136C106.823 180.709 106.719 180.323 106.511 179.976C106.303 179.624 106.023 179.347 105.671 179.144C105.324 178.936 104.938 178.832 104.511 178.832C104.084 178.832 103.695 178.936 103.343 179.144C102.996 179.347 102.719 179.624 102.511 179.976C102.303 180.323 102.199 180.709 102.199 181.136V185.328C102.199 185.76 102.303 186.152 102.511 186.504C102.719 186.851 102.996 187.128 103.343 187.336C103.695 187.539 104.084 187.64 104.511 187.64ZM114.777 189.24C113.993 189.24 113.299 189.069 112.697 188.728C112.094 188.381 111.619 187.907 111.273 187.304C110.931 186.701 110.761 186.008 110.761 185.224V181.256C110.761 180.472 110.931 179.779 111.273 179.176C111.619 178.573 112.094 178.101 112.697 177.76C113.299 177.413 113.993 177.24 114.777 177.24C115.561 177.24 116.254 177.413 116.857 177.76C117.459 178.101 117.931 178.573 118.273 179.176C118.619 179.779 118.793 180.472 118.793 181.256V185.224C118.793 186.008 118.619 186.701 118.273 187.304C117.931 187.907 117.459 188.381 116.857 188.728C116.254 189.069 115.561 189.24 114.777 189.24ZM114.777 187.64C115.203 187.64 115.59 187.539 115.937 187.336C116.289 187.128 116.569 186.851 116.777 186.504C116.985 186.152 117.089 185.76 117.089 185.328V181.136C117.089 180.709 116.985 180.323 116.777 179.976C116.569 179.624 116.289 179.347 115.937 179.144C115.59 178.936 115.203 178.832 114.777 178.832C114.35 178.832 113.961 178.936 113.609 179.144C113.262 179.347 112.985 179.624 112.777 179.976C112.569 180.323 112.465 180.709 112.465 181.136V185.328C112.465 185.76 112.569 186.152 112.777 186.504C112.985 186.851 113.262 187.128 113.609 187.336C113.961 187.539 114.35 187.64 114.777 187.64ZM125.042 189.24C124.258 189.24 123.565 189.069 122.962 188.728C122.36 188.381 121.885 187.907 121.538 187.304C121.197 186.701 121.026 186.008 121.026 185.224V181.256C121.026 180.472 121.197 179.779 121.538 179.176C121.885 178.573 122.36 178.101 122.962 177.76C123.565 177.413 124.258 177.24 125.042 177.24C125.826 177.24 126.52 177.413 127.122 177.76C127.725 178.101 128.197 178.573 128.538 179.176C128.885 179.779 129.058 180.472 129.058 181.256V185.224C129.058 186.008 128.885 186.701 128.538 187.304C128.197 187.907 127.725 188.381 127.122 188.728C126.52 189.069 125.826 189.24 125.042 189.24ZM125.042 187.64C125.469 187.64 125.856 187.539 126.202 187.336C126.554 187.128 126.834 186.851 127.042 186.504C127.25 186.152 127.354 185.76 127.354 185.328V181.136C127.354 180.709 127.25 180.323 127.042 179.976C126.834 179.624 126.554 179.347 126.202 179.144C125.856 178.936 125.469 178.832 125.042 178.832C124.616 178.832 124.226 178.936 123.874 179.144C123.528 179.347 123.25 179.624 123.042 179.976C122.834 180.323 122.73 180.709 122.73 181.136V185.328C122.73 185.76 122.834 186.152 123.042 186.504C123.25 186.851 123.528 187.128 123.874 187.336C124.226 187.539 124.616 187.64 125.042 187.64ZM135.308 189.24C134.524 189.24 133.831 189.069 133.228 188.728C132.625 188.381 132.151 187.907 131.804 187.304C131.463 186.701 131.292 186.008 131.292 185.224V181.256C131.292 180.472 131.463 179.779 131.804 179.176C132.151 178.573 132.625 178.101 133.228 177.76C133.831 177.413 134.524 177.24 135.308 177.24C136.092 177.24 136.785 177.413 137.388 177.76C137.991 178.101 138.463 178.573 138.804 179.176C139.151 179.779 139.324 180.472 139.324 181.256V185.224C139.324 186.008 139.151 186.701 138.804 187.304C138.463 187.907 137.991 188.381 137.388 188.728C136.785 189.069 136.092 189.24 135.308 189.24ZM135.308 187.64C135.735 187.64 136.121 187.539 136.468 187.336C136.82 187.128 137.1 186.851 137.308 186.504C137.516 186.152 137.62 185.76 137.62 185.328V181.136C137.62 180.709 137.516 180.323 137.308 179.976C137.1 179.624 136.82 179.347 136.468 179.144C136.121 178.936 135.735 178.832 135.308 178.832C134.881 178.832 134.492 178.936 134.14 179.144C133.793 179.347 133.516 179.624 133.308 179.976C133.1 180.323 132.996 180.709 132.996 181.136V185.328C132.996 185.76 133.1 186.152 133.308 186.504C133.516 186.851 133.793 187.128 134.14 187.336C134.492 187.539 134.881 187.64 135.308 187.64ZM145.574 189.24C144.79 189.24 144.096 189.069 143.494 188.728C142.891 188.381 142.416 187.907 142.07 187.304C141.728 186.701 141.558 186.008 141.558 185.224V181.256C141.558 180.472 141.728 179.779 142.07 179.176C142.416 178.573 142.891 178.101 143.494 177.76C144.096 177.413 144.79 177.24 145.574 177.24C146.358 177.24 147.051 177.413 147.654 177.76C148.256 178.101 148.728 178.573 149.069 179.176C149.416 179.779 149.59 180.472 149.59 181.256V185.224C149.59 186.008 149.416 186.701 149.069 187.304C148.728 187.907 148.256 188.381 147.654 188.728C147.051 189.069 146.358 189.24 145.574 189.24ZM145.574 187.64C146 187.64 146.387 187.539 146.734 187.336C147.086 187.128 147.366 186.851 147.574 186.504C147.782 186.152 147.886 185.76 147.886 185.328V181.136C147.886 180.709 147.782 180.323 147.574 179.976C147.366 179.624 147.086 179.347 146.734 179.144C146.387 178.936 146 178.832 145.574 178.832C145.147 178.832 144.758 178.936 144.406 179.144C144.059 179.347 143.782 179.624 143.574 179.976C143.366 180.323 143.262 180.709 143.262 181.136V185.328C143.262 185.76 143.366 186.152 143.574 186.504C143.782 186.851 144.059 187.128 144.406 187.336C144.758 187.539 145.147 187.64 145.574 187.64ZM155.839 189.24C155.055 189.24 154.362 189.069 153.759 188.728C153.156 188.381 152.682 187.907 152.335 187.304C151.994 186.701 151.823 186.008 151.823 185.224V181.256C151.823 180.472 151.994 179.779 152.335 179.176C152.682 178.573 153.156 178.101 153.759 177.76C154.362 177.413 155.055 177.24 155.839 177.24C156.623 177.24 157.316 177.413 157.919 177.76C158.522 178.101 158.994 178.573 159.335 179.176C159.682 179.779 159.855 180.472 159.855 181.256V185.224C159.855 186.008 159.682 186.701 159.335 187.304C158.994 187.907 158.522 188.381 157.919 188.728C157.316 189.069 156.623 189.24 155.839 189.24ZM155.839 187.64C156.266 187.64 156.652 187.539 156.999 187.336C157.351 187.128 157.631 186.851 157.839 186.504C158.047 186.152 158.151 185.76 158.151 185.328V181.136C158.151 180.709 158.047 180.323 157.839 179.976C157.631 179.624 157.351 179.347 156.999 179.144C156.652 178.936 156.266 178.832 155.839 178.832C155.412 178.832 155.023 178.936 154.671 179.144C154.324 179.347 154.047 179.624 153.839 179.976C153.631 180.323 153.527 180.709 153.527 181.136V185.328C153.527 185.76 153.631 186.152 153.839 186.504C154.047 186.851 154.324 187.128 154.671 187.336C155.023 187.539 155.412 187.64 155.839 187.64ZM164.097 189V179.32L161.929 180.64V178.776L164.097 177.48H165.801V189H164.097ZM172.063 189.216C171.492 189.216 170.956 189.109 170.455 188.896C169.953 188.677 169.519 188.368 169.151 187.968C168.788 187.568 168.524 187.096 168.359 186.552L169.975 186.104C170.129 186.6 170.399 186.981 170.783 187.248C171.167 187.509 171.593 187.637 172.063 187.632C172.484 187.627 172.855 187.528 173.175 187.336C173.495 187.144 173.745 186.885 173.927 186.56C174.108 186.229 174.199 185.851 174.199 185.424C174.199 184.784 173.999 184.256 173.599 183.84C173.204 183.424 172.687 183.216 172.047 183.216C171.865 183.216 171.679 183.243 171.487 183.296C171.3 183.349 171.124 183.419 170.959 183.504L170.175 182.184L174.239 178.592L174.415 179.072H168.815V177.48H175.743V179.072L172.367 182.32L172.351 181.776C173.076 181.776 173.705 181.939 174.239 182.264C174.772 182.584 175.183 183.021 175.471 183.576C175.764 184.125 175.911 184.741 175.911 185.424C175.911 186.16 175.737 186.813 175.391 187.384C175.049 187.955 174.588 188.403 174.007 188.728C173.431 189.053 172.783 189.216 172.063 189.216ZM178.595 189L182.643 179.072H177.515V177.48H184.443V179.072L180.403 189H178.595ZM188.773 189L192.517 177.48H194.925L198.669 189H196.933L193.485 178.488H193.917L190.509 189H188.773ZM190.717 186.4V184.832H196.733V186.4H190.717ZM200.104 189V177.48H204.76C204.872 177.48 205.011 177.485 205.176 177.496C205.342 177.501 205.499 177.517 205.648 177.544C206.288 177.645 206.822 177.864 207.248 178.2C207.68 178.536 208.003 178.96 208.216 179.472C208.43 179.984 208.536 180.549 208.536 181.168C208.536 182.085 208.302 182.877 207.832 183.544C207.363 184.205 206.659 184.619 205.72 184.784L205.04 184.864H201.776V189H200.104ZM206.84 189L204.568 184.312L206.256 183.88L208.752 189H206.84ZM201.776 183.28H204.696C204.803 183.28 204.92 183.275 205.048 183.264C205.182 183.253 205.307 183.235 205.424 183.208C205.766 183.128 206.04 182.981 206.248 182.768C206.456 182.549 206.606 182.299 206.696 182.016C206.787 181.733 206.832 181.451 206.832 181.168C206.832 180.885 206.787 180.605 206.696 180.328C206.606 180.045 206.456 179.797 206.248 179.584C206.04 179.365 205.766 179.216 205.424 179.136C205.307 179.104 205.182 179.083 205.048 179.072C204.92 179.061 204.803 179.056 204.696 179.056H201.776V183.28Z" fill="white" fill-opacity="0.6"/>
<path d="M422.885 171.27C422.885 170.763 422.795 170.323 422.615 169.95C422.435 169.577 422.178 169.29 421.845 169.09C421.518 168.89 421.138 168.79 420.705 168.79C420.298 168.79 419.928 168.883 419.595 169.07C419.262 169.257 418.995 169.537 418.795 169.91C418.602 170.277 418.505 170.723 418.505 171.25L418.495 178H416.405L416.415 171.31C416.415 170.797 416.325 170.35 416.145 169.97C415.965 169.59 415.708 169.3 415.375 169.1C415.048 168.893 414.665 168.79 414.225 168.79C413.792 168.79 413.408 168.893 413.075 169.1C412.742 169.307 412.482 169.597 412.295 169.97C412.115 170.337 412.025 170.763 412.025 171.25V178H409.925V167.2H411.785V168.36C412.138 167.913 412.582 167.563 413.115 167.31C413.655 167.057 414.245 166.93 414.885 166.93C415.618 166.93 416.252 167.083 416.785 167.39C417.318 167.697 417.732 168.127 418.025 168.68C418.358 168.133 418.812 167.707 419.385 167.4C419.965 167.087 420.605 166.93 421.305 166.93C422.065 166.93 422.722 167.09 423.275 167.41C423.828 167.723 424.248 168.17 424.535 168.75C424.828 169.323 424.975 169.997 424.975 170.77L424.965 178H422.875L422.885 171.27ZM427.772 163.4H429.862V165.43H427.772V163.4ZM427.772 167.2H429.862V178H427.772V167.2ZM440.445 172.69C440.445 171.63 440.248 170.733 439.855 170C439.462 169.26 438.748 168.89 437.715 168.89C436.895 168.89 436.232 169.17 435.725 169.73C435.225 170.29 434.975 171.173 434.975 172.38V178H432.855V167.2H434.725V168.49C435.132 167.983 435.635 167.593 436.235 167.32C436.835 167.047 437.522 166.91 438.295 166.91C439.428 166.91 440.312 167.197 440.945 167.77C441.585 168.337 442.015 169 442.235 169.76C442.455 170.52 442.565 171.267 442.565 172V178H440.445V172.69ZM451.35 178C450.73 178.12 450.16 178.18 449.64 178.18C448.893 178.18 448.24 178.06 447.68 177.82C447.126 177.58 446.713 177.203 446.44 176.69C446.273 176.377 446.163 176.057 446.11 175.73C446.063 175.397 446.04 174.993 446.04 174.52V173.75V168.88H443.97V167.2H446.04V164.2H448.14V167.2H451.35V168.88H448.14V173.65V174.22C448.14 174.56 448.153 174.837 448.18 175.05C448.206 175.257 448.266 175.437 448.36 175.59C448.52 175.857 448.743 176.05 449.03 176.17C449.323 176.283 449.68 176.34 450.1 176.34C450.46 176.34 450.876 176.303 451.35 176.23V178ZM458.717 181.73C457.943 180.837 457.277 179.823 456.717 178.69C456.157 177.557 455.73 176.367 455.437 175.12C455.15 173.867 455.013 172.627 455.027 171.4C455.013 170.173 455.15 168.937 455.437 167.69C455.73 166.437 456.157 165.243 456.717 164.11C457.277 162.977 457.943 161.963 458.717 161.07L460.277 162.23C459.117 163.61 458.27 165.06 457.737 166.58C457.21 168.1 456.943 169.707 456.937 171.4C456.95 174.887 458.063 177.943 460.277 180.57L458.717 181.73ZM461.943 180.57C464.157 177.943 465.27 174.887 465.283 171.4C465.277 169.707 465.007 168.1 464.473 166.58C463.947 165.06 463.103 163.61 461.943 162.23L463.503 161.07C464.277 161.963 464.943 162.977 465.503 164.11C466.063 165.243 466.487 166.437 466.773 167.69C467.067 168.937 467.207 170.173 467.193 171.4C467.207 172.627 467.067 173.867 466.773 175.12C466.487 176.367 466.063 177.557 465.503 178.69C464.943 179.823 464.277 180.837 463.503 181.73L461.943 180.57Z" fill="white"/>
<path d="M0 238C0 218.236 4.236 214 24 214C43.764 214 48 218.236 48 238C48 257.764 43.764 262 24 262C4.236 262 0 257.764 0 238Z" fill="black"/>
<path d="M17 233.667V245H28.3333" stroke="#14D110" stroke-width="2" stroke-linecap="round" stroke-linejoin="round"/>
<path d="M17.3334 244.667L31 231" stroke="#14D110" stroke-width="2" stroke-linecap="round" stroke-linejoin="round"/>
<path d="M65.4 221.6H73.93V223.69H67.49V227.75H72.73V229.85H67.49V236H65.4V221.6ZM80.0591 236.3C78.9791 236.3 78.0457 236.057 77.2591 235.57C76.4791 235.083 75.8824 234.41 75.4691 233.55C75.0557 232.69 74.8457 231.707 74.8391 230.6C74.8457 229.487 75.0591 228.5 75.4791 227.64C75.9057 226.773 76.5124 226.1 77.2991 225.62C78.0924 225.14 79.0224 224.9 80.0891 224.9C80.8691 224.9 81.5791 225.033 82.2191 225.3C82.8657 225.567 83.4057 225.947 83.8391 226.44C84.2791 226.933 84.5891 227.517 84.7691 228.19L82.6891 228.79C82.4824 228.19 82.1424 227.72 81.6691 227.38C81.2024 227.04 80.6657 226.87 80.0591 226.87C79.0724 226.87 78.3257 227.21 77.8191 227.89C77.3191 228.563 77.0657 229.467 77.0591 230.6C77.0657 231.747 77.3257 232.657 77.8391 233.33C78.3524 233.997 79.0924 234.33 80.0591 234.33C80.7124 234.33 81.2491 234.18 81.6691 233.88C82.0957 233.573 82.4224 233.123 82.6491 232.53L84.7691 233.03C84.4157 234.09 83.8324 234.9 83.0191 235.46C82.2057 236.02 81.2191 236.3 80.0591 236.3ZM90.8033 236.3C89.8233 236.3 88.9633 236.053 88.2233 235.56C87.4833 235.06 86.9133 234.377 86.5133 233.51C86.1133 232.643 85.9133 231.67 85.9133 230.59C85.9133 229.503 86.1133 228.53 86.5133 227.67C86.9199 226.803 87.4933 226.127 88.2333 225.64C88.9799 225.147 89.8499 224.9 90.8433 224.9C92.0166 224.9 92.9966 225.247 93.7833 225.94V221.6H95.8833V236H94.0233V235.02C93.6233 235.433 93.1533 235.75 92.6133 235.97C92.0733 236.19 91.4699 236.3 90.8033 236.3ZM88.1333 230.59C88.1333 231.323 88.2433 231.977 88.4633 232.55C88.6833 233.123 89.0133 233.577 89.4533 233.91C89.8999 234.243 90.4466 234.41 91.0933 234.41C92.0799 234.41 92.8133 234.07 93.2933 233.39C93.7799 232.703 94.0233 231.77 94.0233 230.59C94.0233 229.423 93.7833 228.5 93.3033 227.82C92.8299 227.133 92.1166 226.79 91.1633 226.79C90.4899 226.79 89.9266 226.957 89.4733 227.29C89.0199 227.617 88.6833 228.067 88.4633 228.64C88.2433 229.213 88.1333 229.863 88.1333 230.59ZM104.781 233.49H98.2813V231.51L102.961 221.6H105.351L100.671 231.51H104.781V227.61H106.901V231.51H108.331V233.49H106.901V236H104.781V233.49ZM116.742 236.3C115.329 236.3 114.109 235.987 113.082 235.36C112.055 234.733 111.272 233.857 110.732 232.73C110.199 231.597 109.932 230.287 109.932 228.8C109.932 227.313 110.199 226.007 110.732 224.88C111.272 223.747 112.055 222.867 113.082 222.24C114.109 221.613 115.329 221.3 116.742 221.3C117.829 221.3 118.802 221.49 119.662 221.87C120.529 222.243 121.252 222.78 121.832 223.48C122.419 224.173 122.855 224.997 123.142 225.95L121.022 226.52C120.729 225.493 120.222 224.7 119.502 224.14C118.782 223.573 117.862 223.29 116.742 223.29C115.735 223.29 114.889 223.52 114.202 223.98C113.515 224.44 112.999 225.087 112.652 225.92C112.312 226.753 112.142 227.733 112.142 228.86C112.142 229.96 112.315 230.92 112.662 231.74C113.009 232.553 113.525 233.187 114.212 233.64C114.905 234.087 115.749 234.31 116.742 234.31C117.862 234.31 118.782 234.03 119.502 233.47C120.222 232.903 120.729 232.107 121.022 231.08L123.142 231.65C122.855 232.603 122.419 233.43 121.832 234.13C121.252 234.823 120.529 235.36 119.662 235.74C118.802 236.113 117.829 236.3 116.742 236.3ZM128.181 230.54L124.231 225.2H126.711L129.401 228.91L132.061 225.2H134.541L130.591 230.54L134.641 236H132.151L129.401 232.17L126.631 236H124.141L128.181 230.54ZM142.25 236.3C140.837 236.3 139.617 235.987 138.59 235.36C137.563 234.733 136.78 233.857 136.24 232.73C135.707 231.597 135.44 230.287 135.44 228.8C135.44 227.313 135.707 226.007 136.24 224.88C136.78 223.747 137.563 222.867 138.59 222.24C139.617 221.613 140.837 221.3 142.25 221.3C143.337 221.3 144.31 221.49 145.17 221.87C146.037 222.243 146.76 222.78 147.34 223.48C147.927 224.173 148.363 224.997 148.65 225.95L146.53 226.52C146.237 225.493 145.73 224.7 145.01 224.14C144.29 223.573 143.37 223.29 142.25 223.29C141.243 223.29 140.397 223.52 139.71 223.98C139.023 224.44 138.507 225.087 138.16 225.92C137.82 226.753 137.65 227.733 137.65 228.86C137.65 229.96 137.823 230.92 138.17 231.74C138.517 232.553 139.033 233.187 139.72 233.64C140.413 234.087 141.257 234.31 142.25 234.31C143.37 234.31 144.29 234.03 145.01 233.47C145.73 232.903 146.237 232.107 146.53 231.08L148.65 231.65C148.363 232.603 147.927 233.43 147.34 234.13C146.76 234.823 146.037 235.36 145.17 235.74C144.31 236.113 143.337 236.3 142.25 236.3ZM150.213 233.79H152.423V236H150.213V233.79ZM155.936 233.79H158.146V236H155.936V233.79ZM161.658 233.79H163.868V236H161.658V233.79ZM169.861 230.54L165.911 225.2H168.391L171.081 228.91L173.741 225.2H176.221L172.271 230.54L176.321 236H173.831L171.081 232.17L168.311 236H165.821L169.861 230.54ZM177.92 221.6H180.04V230.4L184.28 225.2H186.94L182.46 230.6L187.4 236H184.56L180.04 230.8V236H177.91L177.92 221.6ZM192.478 236.29C191.344 236.29 190.458 236.007 189.818 235.44C189.184 234.867 188.758 234.2 188.538 233.44C188.318 232.68 188.208 231.933 188.208 231.2V225.2H190.328V230.51C190.328 231.57 190.524 232.47 190.918 233.21C191.311 233.943 192.024 234.31 193.058 234.31C193.878 234.31 194.538 234.03 195.038 233.47C195.544 232.91 195.798 232.027 195.798 230.82V225.2H197.908V236H196.048V234.71C195.641 235.217 195.138 235.607 194.538 235.88C193.938 236.153 193.251 236.29 192.478 236.29ZM204.983 236.3C204.256 236.3 203.573 236.15 202.933 235.85C202.293 235.543 201.743 235.12 201.283 234.58C200.829 234.04 200.506 233.423 200.313 232.73L202.323 232.19C202.429 232.603 202.619 232.97 202.893 233.29C203.173 233.603 203.499 233.847 203.873 234.02C204.253 234.193 204.643 234.28 205.043 234.28C205.563 234.28 206.036 234.153 206.463 233.9C206.896 233.647 207.239 233.307 207.493 232.88C207.746 232.447 207.873 231.977 207.873 231.47C207.873 230.957 207.743 230.483 207.483 230.05C207.229 229.617 206.886 229.277 206.453 229.03C206.019 228.777 205.549 228.65 205.043 228.65C204.496 228.65 204.016 228.76 203.603 228.98C203.189 229.2 202.856 229.477 202.603 229.81L200.782 229.17L201.223 221.6H208.993V223.57H203.093L202.853 227.53C203.206 227.277 203.596 227.083 204.023 226.95C204.449 226.817 204.879 226.75 205.313 226.75C206.199 226.75 206.996 226.957 207.703 227.37C208.416 227.777 208.973 228.34 209.373 229.06C209.779 229.78 209.983 230.583 209.983 231.47C209.983 232.343 209.753 233.15 209.293 233.89C208.839 234.63 208.229 235.217 207.463 235.65C206.696 236.083 205.869 236.3 204.983 236.3ZM216.053 221.6H219.063L223.743 236H221.573L220.503 232.75H214.593L213.543 236H211.373L216.053 221.6ZM219.863 230.79L217.533 223.69L215.233 230.79H219.863ZM223.937 238.82H224.487C225.033 238.82 225.437 238.687 225.697 238.42C225.957 238.153 226.087 237.743 226.087 237.19V225.2H228.187V238.04C228.187 238.92 227.943 239.6 227.457 240.08C226.97 240.56 226.28 240.8 225.387 240.8H223.937V238.82ZM226.087 221.4H228.187V223.43H226.087V221.4ZM234.725 221.6H237.735L242.415 236H240.245L239.175 232.75H233.265L232.215 236H230.045L234.725 221.6ZM238.535 230.79L236.205 223.69L233.905 230.79H238.535Z" fill="white"/>
<path d="M323.373 239.27C323.373 238.763 323.283 238.323 323.103 237.95C322.923 237.577 322.667 237.29 322.333 237.09C322.007 236.89 321.627 236.79 321.193 236.79C320.787 236.79 320.417 236.883 320.083 237.07C319.75 237.257 319.483 237.537 319.283 237.91C319.09 238.277 318.993 238.723 318.993 239.25L318.983 246H316.893L316.903 239.31C316.903 238.797 316.813 238.35 316.633 237.97C316.453 237.59 316.197 237.3 315.863 237.1C315.537 236.893 315.153 236.79 314.713 236.79C314.28 236.79 313.897 236.893 313.563 237.1C313.23 237.307 312.97 237.597 312.783 237.97C312.603 238.337 312.513 238.763 312.513 239.25V246H310.413V235.2H312.273V236.36C312.627 235.913 313.07 235.563 313.603 235.31C314.143 235.057 314.733 234.93 315.373 234.93C316.107 234.93 316.74 235.083 317.273 235.39C317.807 235.697 318.22 236.127 318.513 236.68C318.847 236.133 319.3 235.707 319.873 235.4C320.453 235.087 321.093 234.93 321.793 234.93C322.553 234.93 323.21 235.09 323.763 235.41C324.317 235.723 324.737 236.17 325.023 236.75C325.317 237.323 325.463 237.997 325.463 238.77L325.453 246H323.363L323.373 239.27ZM331.11 246.3C330.337 246.3 329.677 246.157 329.13 245.87C328.583 245.577 328.167 245.187 327.88 244.7C327.6 244.207 327.46 243.66 327.46 243.06C327.46 241.467 328.31 240.4 330.01 239.86C330.523 239.707 331.103 239.577 331.75 239.47C332.403 239.357 333.307 239.22 334.46 239.06L334.79 239.02C334.757 238.26 334.55 237.707 334.17 237.36C333.79 237.007 333.183 236.83 332.35 236.83C331.743 236.83 331.21 236.97 330.75 237.25C330.29 237.53 329.973 237.957 329.8 238.53L327.85 237.93C328.117 236.977 328.63 236.233 329.39 235.7C330.157 235.167 331.15 234.9 332.37 234.9C333.363 234.9 334.213 235.07 334.92 235.41C335.627 235.75 336.143 236.267 336.47 236.96C336.623 237.287 336.723 237.637 336.77 238.01C336.823 238.377 336.85 238.823 336.85 239.35V246H335V244.43C334.553 245.063 334.01 245.533 333.37 245.84C332.737 246.147 331.983 246.3 331.11 246.3ZM329.53 243.04C329.53 243.487 329.693 243.857 330.02 244.15C330.353 244.443 330.84 244.59 331.48 244.59C332.047 244.59 332.547 244.49 332.98 244.29C333.413 244.083 333.76 243.817 334.02 243.49C334.287 243.163 334.463 242.817 334.55 242.45C334.683 242.063 334.757 241.5 334.77 240.76L334.51 240.8C333.537 240.94 332.807 241.053 332.32 241.14C331.84 241.227 331.407 241.327 331.02 241.44C330.553 241.6 330.187 241.807 329.92 242.06C329.66 242.313 329.53 242.64 329.53 243.04ZM339.447 235.2H341.307V236.92C341.574 236.447 341.907 236.077 342.307 235.81C342.607 235.583 342.954 235.413 343.347 235.3C343.74 235.187 344.14 235.13 344.547 235.13C344.767 235.13 345.01 235.153 345.277 235.2V237.16C345.05 237.093 344.787 237.06 344.487 237.06C344.207 237.06 343.93 237.097 343.657 237.17C343.39 237.237 343.144 237.343 342.917 237.49C342.01 238.07 341.557 239.09 341.557 240.55V246H339.447V235.2ZM353.361 246C352.741 246.12 352.171 246.18 351.651 246.18C350.905 246.18 350.251 246.06 349.691 245.82C349.138 245.58 348.725 245.203 348.451 244.69C348.285 244.377 348.175 244.057 348.121 243.73C348.075 243.397 348.051 242.993 348.051 242.52V241.75V236.88H345.981V235.2H348.051V232.2H350.151V235.2H353.361V236.88H350.151V241.65V242.22C350.151 242.56 350.165 242.837 350.191 243.05C350.218 243.257 350.278 243.437 350.371 243.59C350.531 243.857 350.755 244.05 351.041 244.17C351.335 244.283 351.691 244.34 352.111 244.34C352.471 244.34 352.888 244.303 353.361 244.23V246ZM359.82 246.3C358.76 246.3 357.83 246.06 357.03 245.58C356.23 245.093 355.614 244.42 355.18 243.56C354.747 242.693 354.53 241.703 354.53 240.59C354.53 239.47 354.75 238.48 355.19 237.62C355.63 236.76 356.25 236.093 357.05 235.62C357.85 235.14 358.774 234.9 359.82 234.9C360.88 234.9 361.81 235.14 362.61 235.62C363.417 236.1 364.037 236.773 364.47 237.64C364.904 238.5 365.12 239.483 365.12 240.59C365.12 241.71 364.9 242.703 364.46 243.57C364.027 244.43 363.41 245.1 362.61 245.58C361.81 246.06 360.88 246.3 359.82 246.3ZM356.75 240.59C356.75 241.75 357.014 242.663 357.54 243.33C358.067 243.997 358.827 244.33 359.82 244.33C360.82 244.33 361.584 243.993 362.11 243.32C362.637 242.64 362.9 241.73 362.9 240.59C362.9 239.437 362.637 238.53 362.11 237.87C361.584 237.203 360.82 236.87 359.82 236.87C358.807 236.87 358.04 237.203 357.52 237.87C357.007 238.537 356.75 239.443 356.75 240.59ZM374.898 240.69C374.898 239.63 374.701 238.733 374.308 238C373.915 237.26 373.201 236.89 372.168 236.89C371.348 236.89 370.685 237.17 370.178 237.73C369.678 238.29 369.428 239.173 369.428 240.38V246H367.308V235.2H369.178V236.49C369.585 235.983 370.088 235.593 370.688 235.32C371.288 235.047 371.975 234.91 372.748 234.91C373.881 234.91 374.765 235.197 375.398 235.77C376.038 236.337 376.468 237 376.688 237.76C376.908 238.52 377.018 239.267 377.018 240V246H374.898V240.69ZM379.823 231.6H381.913V246H379.823V231.6ZM389.706 246.3C388.639 246.3 387.699 246.067 386.886 245.6C386.072 245.127 385.439 244.467 384.986 243.62C384.539 242.767 384.316 241.79 384.316 240.69C384.316 239.523 384.536 238.503 384.976 237.63C385.416 236.757 386.036 236.083 386.836 235.61C387.636 235.137 388.559 234.9 389.606 234.9C390.639 234.9 391.532 235.13 392.286 235.59C393.039 236.05 393.616 236.71 394.016 237.57C394.422 238.423 394.626 239.433 394.626 240.6C394.626 240.727 394.619 240.923 394.606 241.19H386.556C386.642 242.197 386.946 242.973 387.466 243.52C387.986 244.06 388.699 244.33 389.606 244.33C390.252 244.33 390.816 244.183 391.296 243.89C391.776 243.597 392.149 243.17 392.416 242.61L394.466 243.26C394.052 244.213 393.419 244.96 392.566 245.5C391.712 246.033 390.759 246.3 389.706 246.3ZM392.466 239.56C392.352 238.607 392.066 237.9 391.606 237.44C391.152 236.98 390.512 236.75 389.686 236.75C388.799 236.75 388.096 236.99 387.576 237.47C387.062 237.943 386.739 238.64 386.606 239.56H392.466ZM401.139 246.3C400.159 246.3 399.299 246.053 398.559 245.56C397.819 245.06 397.249 244.377 396.849 243.51C396.449 242.643 396.249 241.67 396.249 240.59C396.249 239.503 396.449 238.53 396.849 237.67C397.256 236.803 397.829 236.127 398.569 235.64C399.316 235.147 400.186 234.9 401.179 234.9C402.353 234.9 403.333 235.247 404.119 235.94V231.6H406.219V246H404.359V245.02C403.959 245.433 403.489 245.75 402.949 245.97C402.409 246.19 401.806 246.3 401.139 246.3ZM398.469 240.59C398.469 241.323 398.579 241.977 398.799 242.55C399.019 243.123 399.349 243.577 399.789 243.91C400.236 244.243 400.783 244.41 401.429 244.41C402.416 244.41 403.149 244.07 403.629 243.39C404.116 242.703 404.359 241.77 404.359 240.59C404.359 239.423 404.119 238.5 403.639 237.82C403.166 237.133 402.453 236.79 401.499 236.79C400.826 236.79 400.263 236.957 399.809 237.29C399.356 237.617 399.019 238.067 398.799 238.64C398.579 239.213 398.469 239.863 398.469 240.59ZM413.807 246.3C412.741 246.3 411.801 246.067 410.987 245.6C410.174 245.127 409.541 244.467 409.087 243.62C408.641 242.767 408.417 241.79 408.417 240.69C408.417 239.523 408.637 238.503 409.077 237.63C409.517 236.757 410.137 236.083 410.937 235.61C411.737 235.137 412.661 234.9 413.707 234.9C414.741 234.9 415.634 235.13 416.387 235.59C417.141 236.05 417.717 236.71 418.117 237.57C418.524 238.423 418.727 239.433 418.727 240.6C418.727 240.727 418.721 240.923 418.707 241.19H410.657C410.744 242.197 411.047 242.973 411.567 243.52C412.087 244.06 412.801 244.33 413.707 244.33C414.354 244.33 414.917 244.183 415.397 243.89C415.877 243.597 416.251 243.17 416.517 242.61L418.567 243.26C418.154 244.213 417.521 244.96 416.667 245.5C415.814 246.033 414.861 246.3 413.807 246.3ZM416.567 239.56C416.454 238.607 416.167 237.9 415.707 237.44C415.254 236.98 414.614 236.75 413.787 236.75C412.901 236.75 412.197 236.99 411.677 237.47C411.164 237.943 410.841 238.64 410.707 239.56H416.567ZM420.951 235.2H422.811V236.92C423.077 236.447 423.411 236.077 423.811 235.81C424.111 235.583 424.457 235.413 424.851 235.3C425.244 235.187 425.644 235.13 426.051 235.13C426.271 235.13 426.514 235.153 426.781 235.2V237.16C426.554 237.093 426.291 237.06 425.991 237.06C425.711 237.06 425.434 237.097 425.161 237.17C424.894 237.237 424.647 237.343 424.421 237.49C423.514 238.07 423.061 239.09 423.061 240.55V246H420.951V235.2ZM433.28 246.3C432.213 246.3 431.273 246.067 430.46 245.6C429.647 245.127 429.013 244.467 428.56 243.62C428.113 242.767 427.89 241.79 427.89 240.69C427.89 239.523 428.11 238.503 428.55 237.63C428.99 236.757 429.61 236.083 430.41 235.61C431.21 235.137 432.133 234.9 433.18 234.9C434.213 234.9 435.107 235.13 435.86 235.59C436.613 236.05 437.19 236.71 437.59 237.57C437.997 238.423 438.2 239.433 438.2 240.6C438.2 240.727 438.193 240.923 438.18 241.19H430.13C430.217 242.197 430.52 242.973 431.04 243.52C431.56 244.06 432.273 244.33 433.18 244.33C433.827 244.33 434.39 244.183 434.87 243.89C435.35 243.597 435.723 243.17 435.99 242.61L438.04 243.26C437.627 244.213 436.993 244.96 436.14 245.5C435.287 246.033 434.333 246.3 433.28 246.3ZM436.04 239.56C435.927 238.607 435.64 237.9 435.18 237.44C434.727 236.98 434.087 236.75 433.26 236.75C432.373 236.75 431.67 236.99 431.15 237.47C430.637 237.943 430.313 238.64 430.18 239.56H436.04ZM440.423 235.2H442.283V236.92C442.55 236.447 442.883 236.077 443.283 235.81C443.583 235.583 443.93 235.413 444.323 235.3C444.717 235.187 445.117 235.13 445.523 235.13C445.743 235.13 445.987 235.153 446.253 235.2V237.16C446.027 237.093 445.763 237.06 445.463 237.06C445.183 237.06 444.907 237.097 444.633 237.17C444.367 237.237 444.12 237.343 443.893 237.49C442.987 238.07 442.533 239.09 442.533 240.55V246H440.423V235.2ZM446.916 243.79H449.126V246H446.916V243.79ZM455.329 246.3C454.556 246.3 453.896 246.157 453.349 245.87C452.802 245.577 452.386 245.187 452.099 244.7C451.819 244.207 451.679 243.66 451.679 243.06C451.679 241.467 452.529 240.4 454.229 239.86C454.742 239.707 455.322 239.577 455.969 239.47C456.622 239.357 457.526 239.22 458.679 239.06L459.009 239.02C458.976 238.26 458.769 237.707 458.389 237.36C458.009 237.007 457.402 236.83 456.569 236.83C455.962 236.83 455.429 236.97 454.969 237.25C454.509 237.53 454.192 237.957 454.019 238.53L452.069 237.93C452.336 236.977 452.849 236.233 453.609 235.7C454.376 235.167 455.369 234.9 456.589 234.9C457.582 234.9 458.432 235.07 459.139 235.41C459.846 235.75 460.362 236.267 460.689 236.96C460.842 237.287 460.942 237.637 460.989 238.01C461.042 238.377 461.069 238.823 461.069 239.35V246H459.219V244.43C458.772 245.063 458.229 245.533 457.589 245.84C456.956 246.147 456.202 246.3 455.329 246.3ZM453.749 243.04C453.749 243.487 453.912 243.857 454.239 244.15C454.572 244.443 455.059 244.59 455.699 244.59C456.266 244.59 456.766 244.49 457.199 244.29C457.632 244.083 457.979 243.817 458.239 243.49C458.506 243.163 458.682 242.817 458.769 242.45C458.902 242.063 458.976 241.5 458.989 240.76L458.729 240.8C457.756 240.94 457.026 241.053 456.539 241.14C456.059 241.227 455.626 241.327 455.239 241.44C454.772 241.6 454.406 241.807 454.139 242.06C453.879 242.313 453.749 242.64 453.749 243.04ZM463.666 235.2H465.526V236.92C465.792 236.447 466.126 236.077 466.526 235.81C466.826 235.583 467.172 235.413 467.566 235.3C467.959 235.187 468.359 235.13 468.766 235.13C468.986 235.13 469.229 235.153 469.496 235.2V237.16C469.269 237.093 469.006 237.06 468.706 237.06C468.426 237.06 468.149 237.097 467.876 237.17C467.609 237.237 467.362 237.343 467.136 237.49C466.229 238.07 465.776 239.09 465.776 240.55V246H463.666V235.2Z" fill="white"/>
</g>
<defs>
<clipPath id="clip0_283_179">
<rect width="470" height="240" fill="white"/>
</clipPath>
</defs>
</svg>
