<svg width="150" height="51" viewBox="0 0 150 51" fill="none" xmlns="http://www.w3.org/2000/svg">
<g id="Download_on_the_App_Store_Badge_US-UK_RGB_blk_092917 1" clip-path="url(#clip0_173_1292)">
<g id="Group">
<g id="Group_2">
<g id="Group_3">
<path id="Vector" d="M137.668 0.500163H11.9184C11.46 0.500163 11.0071 0.500163 10.5499 0.502663C10.1672 0.505163 9.78761 0.512425 9.40125 0.518537C8.56189 0.528415 7.72451 0.602258 6.89637 0.739425C6.06941 0.879578 5.26834 1.14381 4.52028 1.52318C3.77312 1.90575 3.09043 2.40287 2.49696 2.9965C1.90038 3.58846 1.40308 4.27268 1.02419 5.02286C0.64425 5.77155 0.380801 6.57384 0.242938 7.40201C0.103764 8.22914 0.028873 9.06581 0.0189375 9.90451C0.0073375 10.2878 0.0061125 10.6723 0 11.0556V39.9484C0.0061125 40.3365 0.0073375 40.7125 0.0189375 41.1008C0.028876 41.9394 0.103767 42.7761 0.242938 43.6032C0.38042 44.4318 0.643885 45.2346 1.02419 45.9835C1.40291 46.7313 1.90028 47.4127 2.49696 48.0014C3.08818 48.5977 3.77132 49.0951 4.52028 49.4748C5.26833 49.8552 6.06931 50.121 6.89637 50.2633C7.72465 50.3994 8.56195 50.4732 9.40125 50.4843C9.78761 50.4928 10.1672 50.4977 10.5499 50.4977C11.0071 50.5002 11.46 50.5002 11.9184 50.5002H137.668C138.118 50.5002 138.574 50.5002 139.023 50.4977C139.404 50.4977 139.795 50.4928 140.176 50.4843C141.014 50.4738 141.849 50.3999 142.676 50.2633C143.506 50.12 144.309 49.8542 145.061 49.4748C145.809 49.0949 146.492 48.5975 147.083 48.0014C147.678 47.4104 148.176 46.7295 148.56 45.9835C148.937 45.234 149.198 44.4313 149.333 43.6032C149.473 42.776 149.55 41.9395 149.565 41.1008C149.57 40.7125 149.57 40.3365 149.57 39.9484C149.58 39.4943 149.58 39.0427 149.58 38.5812V12.4203C149.58 11.9626 149.58 11.5085 149.57 11.0556C149.57 10.6723 149.57 10.2878 149.565 9.90446C149.55 9.06569 149.473 8.22921 149.333 7.40196C149.198 6.57426 148.937 5.77204 148.56 5.02281C147.788 3.51916 146.564 2.29519 145.061 1.52306C144.309 1.14462 143.505 0.880463 142.676 0.739312C141.849 0.601541 141.014 0.527672 140.176 0.518362C139.795 0.512262 139.404 0.504938 139.023 0.5025C138.574 0.5 138.118 0.500163 137.668 0.500163Z" fill="#A6A6A6"/>
<path id="Vector_2" d="M10.556 49.4062C10.1751 49.4062 9.80346 49.4014 9.4256 49.3929C8.64283 49.3827 7.86188 49.3145 7.08917 49.189C6.36866 49.0649 5.67068 48.8341 5.01825 48.5041C4.3718 48.1769 3.78219 47.7478 3.272 47.2334C2.75442 46.725 2.32352 46.1353 1.99636 45.4878C1.6656 44.836 1.43669 44.1374 1.31761 43.4163C1.18902 42.6414 1.11944 41.8579 1.10949 41.0725C1.10156 40.8089 1.09119 39.9311 1.09119 39.9311V11.0554C1.09119 11.0554 1.10224 10.1912 1.10955 9.93725C1.11908 9.1531 1.18825 8.37082 1.31646 7.59716C1.43576 6.87406 1.66485 6.17344 1.99579 5.51954C2.32174 4.87243 2.75025 4.28233 3.26471 3.7721C3.77859 3.25703 4.37009 2.82576 5.01764 2.49401C5.66857 2.16512 6.36523 1.93592 7.08429 1.81409C7.85953 1.6873 8.64319 1.61875 9.42867 1.60901L10.5566 1.59375H139.017L140.159 1.60963C140.937 1.61887 141.713 1.68681 142.482 1.81286C143.208 1.93622 143.912 2.16702 144.57 2.49768C145.868 3.16623 146.923 4.22395 147.589 5.52259C147.915 6.17197 148.14 6.86688 148.258 7.58374C148.388 8.36374 148.46 9.15217 148.475 9.94275C148.479 10.2968 148.479 10.677 148.479 11.0554C148.489 11.5242 148.489 11.9703 148.489 12.4202V38.581C148.489 39.0351 148.489 39.4783 148.479 39.925C148.479 40.3315 148.479 40.7039 148.474 41.0871C148.459 41.8636 148.388 42.638 148.26 43.404C148.144 44.1303 147.916 44.8344 147.585 45.4915C147.256 46.132 146.827 46.7166 146.316 47.2236C145.805 47.7409 145.215 48.1724 144.567 48.5018C143.91 48.8342 143.207 49.0659 142.482 49.189C141.709 49.3152 140.928 49.3834 140.145 49.3929C139.779 49.4014 139.396 49.4062 139.023 49.4062L137.668 49.4087L10.556 49.4062Z" fill="black"/>
</g>
<g id="&#60;Group&#62;">
<g id="&#60;Group&#62;_2">
<g id="&#60;Group&#62;_3">
<path id="&#60;Path&#62;" d="M30.9604 25.8785C30.9738 24.8351 31.251 23.8122 31.766 22.9047C32.281 21.9973 33.0172 21.2349 33.9061 20.6884C33.3414 19.8819 32.5965 19.2183 31.7304 18.7501C30.8644 18.2819 29.9011 18.0221 28.9171 17.9913C26.8181 17.771 24.7831 19.2473 23.7135 19.2473C22.6232 19.2473 20.9763 18.0132 19.2029 18.0497C18.0558 18.0867 16.9379 18.4203 15.958 19.0179C14.9782 19.6154 14.1698 20.4566 13.6117 21.4595C11.1942 25.645 12.9975 31.7963 15.3132 35.1796C16.4719 36.8363 17.826 38.6868 19.5978 38.6212C21.3316 38.5493 21.9791 37.5156 24.072 37.5156C26.1455 37.5156 26.753 38.6212 28.5608 38.5795C30.4212 38.5493 31.5934 36.9154 32.7114 35.2431C33.5439 34.0626 34.1845 32.758 34.6094 31.3774C33.5285 30.9203 32.6061 30.155 31.9572 29.1772C31.3083 28.1993 30.9616 27.0521 30.9604 25.8785Z" fill="white"/>
<path id="&#60;Path&#62;_2" d="M27.5464 15.7659C28.5608 14.5481 29.0605 12.9829 28.9395 11.4026C27.3897 11.5654 25.9581 12.3061 24.93 13.4771C24.4274 14.0492 24.0424 14.7147 23.7971 15.4357C23.5517 16.1567 23.4509 16.9189 23.5004 17.6788C24.2756 17.6868 25.0424 17.5188 25.7433 17.1874C26.4441 16.8561 27.0606 16.37 27.5464 15.7659Z" fill="white"/>
</g>
</g>
<g id="Group_4">
<path id="Vector_3" d="M52.8771 34.4254H46.9603L45.5394 38.621H43.0333L48.6376 23.0985H51.2413L56.8456 38.621H54.2967L52.8771 34.4254ZM47.5731 32.4894H52.2631L49.9511 25.6803H49.8864L47.5731 32.4894Z" fill="white"/>
<path id="Vector_4" d="M68.9485 32.9634C68.9485 36.4803 67.0662 38.7398 64.2256 38.7398C63.5061 38.7774 62.7904 38.6116 62.1607 38.2615C61.5309 37.9113 61.0125 37.3909 60.6648 36.7598H60.6111V42.3652H58.2881V27.3042H60.5367V29.1865H60.5794C60.9431 28.5585 61.4702 28.0407 62.1048 27.6884C62.7393 27.3361 63.4575 27.1624 64.1829 27.1858C67.0552 27.1858 68.9485 29.4563 68.9485 32.9634ZM66.5608 32.9634C66.5608 30.6722 65.3767 29.1658 63.5701 29.1658C61.7952 29.1658 60.6013 30.7039 60.6013 32.9634C60.6013 35.2437 61.7952 36.7708 63.5701 36.7708C65.3767 36.7708 66.5608 35.2754 66.5608 32.9634Z" fill="white"/>
<path id="Vector_5" d="M81.4046 32.9634C81.4046 36.4802 79.5223 38.7398 76.6817 38.7398C75.9621 38.7774 75.2465 38.6116 74.6167 38.2615C73.987 37.9113 73.4686 37.3909 73.1209 36.7598H73.0671V42.3652H70.7441V27.3042H72.9927V29.1865H73.0354C73.3991 28.5584 73.9262 28.0407 74.5608 27.6884C75.1953 27.3361 75.9135 27.1624 76.6389 27.1858C79.5113 27.1858 81.4046 29.4563 81.4046 32.9634ZM79.0169 32.9634C79.0169 30.6721 77.8328 29.1658 76.0262 29.1658C74.2513 29.1658 73.0574 30.7039 73.0574 32.9634C73.0574 35.2437 74.2513 36.7708 76.0262 36.7708C77.8328 36.7708 79.0169 35.2754 79.0169 32.9634Z" fill="white"/>
<path id="Vector_6" d="M89.6374 34.2961C89.8095 35.8354 91.3049 36.8461 93.3483 36.8461C95.3063 36.8461 96.715 35.8353 96.715 34.4474C96.715 33.2426 95.8654 32.5211 93.8537 32.0267L91.842 31.5421C88.9916 30.8536 87.6684 29.5206 87.6684 27.3575C87.6684 24.6793 90.0024 22.8397 93.3166 22.8397C96.5966 22.8397 98.8451 24.6793 98.9208 27.3575H96.5758C96.4354 25.8085 95.1549 24.8734 93.2836 24.8734C91.4122 24.8734 90.1317 25.8195 90.1317 27.1964C90.1317 28.2938 90.9496 28.9396 92.9503 29.4339L94.6605 29.8538C97.8453 30.607 99.1686 31.8863 99.1686 34.1568C99.1686 37.0609 96.8553 38.8797 93.1761 38.8797C89.7338 38.8797 87.4095 37.1036 87.2594 34.296L89.6374 34.2961Z" fill="white"/>
<path id="Vector_7" d="M104.182 24.626V27.3042H106.334V29.1438H104.182V35.3828C104.182 36.352 104.613 36.8037 105.559 36.8037C105.814 36.7993 106.069 36.7813 106.323 36.75V38.5786C105.897 38.658 105.465 38.694 105.032 38.686C102.741 38.686 101.848 37.8254 101.848 35.6306V29.1438H100.202V27.3042H101.848V24.626H104.182Z" fill="white"/>
<path id="Vector_8" d="M107.58 32.9634C107.58 29.4026 109.677 27.165 112.948 27.165C116.229 27.165 118.316 29.4025 118.316 32.9634C118.316 36.5339 116.24 38.7617 112.948 38.7617C109.656 38.7617 107.58 36.5339 107.58 32.9634ZM115.949 32.9634C115.949 30.5208 114.83 29.0791 112.947 29.0791C111.065 29.0791 109.947 30.5317 109.947 32.9634C109.947 35.4158 111.065 36.8464 112.947 36.8464C114.83 36.8464 115.949 35.4158 115.949 32.9634Z" fill="white"/>
<path id="Vector_9" d="M120.231 27.3041H122.447V29.2304H122.501C122.651 28.6288 123.003 28.0971 123.499 27.7247C123.995 27.3524 124.603 27.162 125.223 27.1857C125.491 27.1847 125.758 27.2138 126.019 27.2724V29.4452C125.681 29.3419 125.328 29.2945 124.975 29.3048C124.638 29.2911 124.301 29.3506 123.989 29.4793C123.677 29.6079 123.396 29.8025 123.166 30.0499C122.936 30.2973 122.762 30.5915 122.657 30.9123C122.551 31.2331 122.516 31.573 122.554 31.9086V38.6212H120.231L120.231 27.3041Z" fill="white"/>
<path id="Vector_10" d="M136.729 35.2974C136.417 37.3518 134.416 38.7617 131.856 38.7617C128.564 38.7617 126.521 36.5559 126.521 33.0171C126.521 29.4673 128.575 27.165 131.759 27.165C134.89 27.165 136.859 29.3159 136.859 32.7473V33.5432H128.865V33.6836C128.829 34.1001 128.881 34.5197 129.018 34.9145C129.156 35.3093 129.376 35.6703 129.664 35.9734C129.952 36.2766 130.301 36.5151 130.689 36.673C131.076 36.8308 131.492 36.9045 131.91 36.8892C132.459 36.9406 133.01 36.8134 133.481 36.5266C133.952 36.2398 134.317 35.8087 134.523 35.2974L136.729 35.2974ZM128.876 31.9197H134.534C134.555 31.5452 134.499 31.1704 134.368 30.8189C134.237 30.4674 134.035 30.1467 133.774 29.877C133.513 29.6073 133.2 29.3944 132.853 29.2516C132.506 29.1088 132.134 29.0393 131.759 29.0474C131.38 29.0451 131.005 29.1178 130.655 29.2612C130.305 29.4046 129.987 29.616 129.719 29.883C129.451 30.1501 129.239 30.4675 129.094 30.8171C128.949 31.1667 128.875 31.5414 128.876 31.9197Z" fill="white"/>
</g>
</g>
</g>
<g id="&#60;Group&#62;_4">
<g id="Group_5">
<path id="Vector_11" d="M47.2815 11.4108C47.7685 11.3759 48.2572 11.4494 48.7123 11.6262C49.1675 11.803 49.5777 12.0786 49.9135 12.4331C50.2492 12.7877 50.502 13.2123 50.6538 13.6764C50.8056 14.1405 50.8524 14.6325 50.791 15.1169C50.791 17.4997 49.5032 18.8694 47.2815 18.8694H44.5874V11.4108H47.2815ZM45.7458 17.8146H47.1521C47.5001 17.8354 47.8484 17.7783 48.1715 17.6475C48.4947 17.5168 48.7847 17.3156 49.0203 17.0586C49.2559 16.8017 49.4312 16.4954 49.5336 16.1621C49.6359 15.8289 49.6626 15.477 49.6118 15.1321C49.6589 14.7885 49.6295 14.4388 49.5256 14.108C49.4217 13.7771 49.2459 13.4734 49.0108 13.2185C48.7758 12.9636 48.4872 12.7638 48.1659 12.6335C47.8445 12.5032 47.4983 12.4456 47.1521 12.4648H45.7458V17.8146Z" fill="white"/>
<path id="Vector_12" d="M52.0996 16.0524C52.0642 15.6825 52.1065 15.3093 52.2238 14.9567C52.3411 14.6041 52.5308 14.28 52.7807 14.005C53.0307 13.73 53.3353 13.5103 53.6751 13.36C54.0149 13.2096 54.3824 13.132 54.754 13.132C55.1256 13.132 55.4931 13.2096 55.8329 13.36C56.1727 13.5103 56.4774 13.73 56.7273 14.005C56.9772 14.28 57.1669 14.6041 57.2842 14.9567C57.4015 15.3093 57.4438 15.6825 57.4084 16.0524C57.4445 16.4227 57.4027 16.7964 57.2857 17.1496C57.1687 17.5027 56.9791 17.8275 56.7291 18.103C56.4791 18.3786 56.1743 18.5987 55.8341 18.7494C55.494 18.9001 55.126 18.9779 54.754 18.9779C54.382 18.9779 54.0141 18.9001 53.6739 18.7494C53.3338 18.5987 53.0289 18.3786 52.7789 18.103C52.5289 17.8275 52.3393 17.5027 52.2223 17.1496C52.1053 16.7964 52.0635 16.4227 52.0996 16.0524ZM56.2658 16.0524C56.2658 14.8323 55.7177 14.1188 54.7558 14.1188C53.7903 14.1188 53.2471 14.8323 53.2471 16.0524C53.2471 17.2823 53.7903 17.9903 54.7558 17.9903C55.7178 17.9903 56.2658 17.2774 56.2658 16.0524Z" fill="white"/>
<path id="Vector_13" d="M64.4653 18.8689H63.313L62.1497 14.7234H62.0618L60.9033 18.8689H59.762L58.2104 13.2402H59.3372L60.3455 17.5352H60.4285L61.5857 13.2402H62.6514L63.8086 17.5352H63.8965L64.8999 13.2402H66.0107L64.4653 18.8689Z" fill="white"/>
<path id="Vector_14" d="M67.3159 13.2392H68.3853V14.1334H68.4683C68.6091 13.8122 68.8466 13.543 69.1477 13.3632C69.4488 13.1835 69.7984 13.1021 70.148 13.1305C70.4218 13.1099 70.6968 13.1512 70.9526 13.2514C71.2083 13.3515 71.4383 13.5079 71.6254 13.7089C71.8125 13.91 71.9519 14.1505 72.0334 14.4128C72.1149 14.6751 72.1364 14.9524 72.0962 15.224V18.8678H70.9854V15.503C70.9854 14.5985 70.5923 14.1486 69.7708 14.1486C69.5848 14.14 69.3992 14.1716 69.2266 14.2414C69.054 14.3112 68.8986 14.4175 68.7709 14.5529C68.6433 14.6884 68.5464 14.8499 68.487 15.0263C68.4276 15.2027 68.4071 15.3899 68.4268 15.575V18.8679H67.3159L67.3159 13.2392Z" fill="white"/>
<path id="Vector_15" d="M73.8656 11.043H74.9764V18.8689H73.8656V11.043Z" fill="white"/>
<path id="Vector_16" d="M76.5209 16.0525C76.4856 15.6826 76.5279 15.3094 76.6453 14.9568C76.7626 14.6042 76.9523 14.28 77.2023 14.005C77.4522 13.73 77.7569 13.5103 78.0967 13.36C78.4366 13.2096 78.8041 13.132 79.1757 13.132C79.5473 13.132 79.9148 13.2096 80.2546 13.36C80.5945 13.5103 80.8991 13.73 81.1491 14.005C81.399 14.28 81.5888 14.6042 81.7061 14.9568C81.8234 15.3094 81.8658 15.6826 81.8304 16.0525C81.8664 16.4228 81.8246 16.7966 81.7075 17.1497C81.5905 17.5029 81.4009 17.8276 81.1509 18.1031C80.9009 18.3787 80.596 18.5988 80.2558 18.7495C79.9156 18.9001 79.5477 18.978 79.1757 18.978C78.8036 18.978 78.4357 18.9001 78.0955 18.7495C77.7554 18.5988 77.4505 18.3787 77.2005 18.1031C76.9505 17.8276 76.7608 17.5029 76.6438 17.1497C76.5268 16.7966 76.4849 16.4228 76.5209 16.0525ZM80.6872 16.0525C80.6872 14.8324 80.1391 14.1189 79.1772 14.1189C78.2116 14.1189 77.6685 14.8324 77.6685 16.0525C77.6685 17.2824 78.2117 17.9904 79.1772 17.9904C80.1391 17.9904 80.6872 17.2775 80.6872 16.0525Z" fill="white"/>
<path id="Vector_17" d="M83.0001 17.2775C83.0001 16.2643 83.7545 15.6802 85.0936 15.5972L86.6183 15.5093V15.0234C86.6183 14.4289 86.2252 14.0933 85.4659 14.0933C84.8458 14.0933 84.4161 14.3209 84.2928 14.7189H83.2174C83.3309 13.7521 84.2404 13.132 85.5172 13.132C86.9283 13.132 87.7242 13.8345 87.7242 15.0234V18.8693H86.6549V18.0782H86.567C86.3886 18.362 86.1381 18.5933 85.8411 18.7486C85.5441 18.9038 85.2111 18.9775 84.8763 18.962C84.6401 18.9866 84.4012 18.9614 84.1753 18.888C83.9493 18.8146 83.7413 18.6947 83.5645 18.536C83.3877 18.3773 83.2462 18.1833 83.149 17.9665C83.0518 17.7498 83.0011 17.515 83.0001 17.2775ZM86.6183 16.7965V16.3259L85.2438 16.4138C84.4686 16.4657 84.1171 16.7294 84.1171 17.2256C84.1171 17.7322 84.5565 18.027 85.1608 18.027C85.3379 18.0449 85.5167 18.027 85.6867 17.9744C85.8567 17.9218 86.0144 17.8355 86.1504 17.7207C86.2864 17.6059 86.3979 17.4649 86.4783 17.3061C86.5586 17.1474 86.6063 16.9741 86.6183 16.7965Z" fill="white"/>
<path id="Vector_18" d="M89.1842 16.0521C89.1842 14.2736 90.0985 13.1469 91.5206 13.1469C91.8724 13.1307 92.2215 13.2149 92.5272 13.3898C92.8328 13.5647 93.0824 13.8229 93.2467 14.1344H93.3297V11.043H94.4406V18.8689H93.3761V17.9796H93.2882C93.1112 18.289 92.8529 18.544 92.5414 18.7171C92.2298 18.8902 91.8768 18.9748 91.5206 18.9617C90.0888 18.9617 89.1842 17.835 89.1842 16.0521ZM90.3317 16.0521C90.3317 17.246 90.8945 17.9644 91.8356 17.9644C92.7719 17.9644 93.3505 17.2356 93.3505 16.057C93.3505 14.8839 92.7658 14.1448 91.8356 14.1448C90.9005 14.1448 90.3317 14.8681 90.3317 16.0521Z" fill="white"/>
<path id="Vector_19" d="M99.036 16.0524C99.0006 15.6825 99.0429 15.3093 99.1602 14.9567C99.2775 14.6041 99.4672 14.28 99.7171 14.005C99.9671 13.73 100.272 13.5103 100.612 13.36C100.951 13.2096 101.319 13.132 101.69 13.132C102.062 13.132 102.429 13.2096 102.769 13.36C103.109 13.5103 103.414 13.73 103.664 14.005C103.914 14.28 104.103 14.6041 104.221 14.9567C104.338 15.3093 104.38 15.6825 104.345 16.0524C104.381 16.4227 104.339 16.7964 104.222 17.1496C104.105 17.5027 103.916 17.8275 103.666 18.103C103.416 18.3786 103.111 18.5987 102.771 18.7494C102.43 18.9001 102.062 18.9779 101.69 18.9779C101.318 18.9779 100.95 18.9001 100.61 18.7494C100.27 18.5987 99.9653 18.3786 99.7153 18.103C99.4653 17.8275 99.2757 17.5027 99.1587 17.1496C99.0417 16.7964 98.9999 16.4227 99.036 16.0524ZM103.202 16.0524C103.202 14.8323 102.654 14.1188 101.692 14.1188C100.727 14.1188 100.183 14.8323 100.183 16.0524C100.183 17.2823 100.727 17.9903 101.692 17.9903C102.654 17.9903 103.202 17.2774 103.202 16.0524Z" fill="white"/>
<path id="Vector_20" d="M105.835 13.2392H106.905V14.1334H106.988C107.129 13.8122 107.366 13.543 107.667 13.3632C107.968 13.1835 108.318 13.1021 108.667 13.1305C108.941 13.1099 109.216 13.1512 109.472 13.2514C109.728 13.3515 109.958 13.5079 110.145 13.7089C110.332 13.91 110.471 14.1505 110.553 14.4128C110.634 14.6751 110.656 14.9524 110.616 15.224V18.8678H109.505V15.503C109.505 14.5985 109.112 14.1486 108.29 14.1486C108.104 14.14 107.919 14.1716 107.746 14.2414C107.574 14.3112 107.418 14.4175 107.29 14.5529C107.163 14.6884 107.066 14.8499 107.007 15.0263C106.947 15.2027 106.927 15.3899 106.946 15.575V18.8679H105.835V13.2392Z" fill="white"/>
<path id="Vector_21" d="M116.893 11.8389V13.2659H118.112V14.2015H116.893V17.0958C116.893 17.6854 117.136 17.9436 117.689 17.9436C117.83 17.9432 117.972 17.9346 118.112 17.918V18.8433C117.913 18.8789 117.711 18.8979 117.508 18.9C116.273 18.9 115.781 18.4654 115.781 17.3802V14.2015H114.887V13.2658H115.781V11.8389H116.893Z" fill="white"/>
<path id="Vector_22" d="M119.629 11.043H120.73V14.1448H120.818C120.966 13.8206 121.21 13.5499 121.517 13.3695C121.824 13.189 122.179 13.1077 122.534 13.1365C122.807 13.1217 123.079 13.1671 123.332 13.2697C123.585 13.3722 123.812 13.5293 123.997 13.7298C124.182 13.9302 124.321 14.169 124.403 14.4292C124.485 14.6893 124.509 14.9644 124.473 15.2349V18.8689H123.361V15.5089C123.361 14.6099 122.942 14.1545 122.157 14.1545C121.966 14.1389 121.774 14.1651 121.595 14.2314C121.415 14.2978 121.252 14.4025 121.117 14.5385C120.982 14.6744 120.878 14.8382 120.813 15.0183C120.748 15.1985 120.723 15.3907 120.74 15.5815V18.8689H119.629L119.629 11.043Z" fill="white"/>
<path id="Vector_23" d="M130.95 17.3496C130.799 17.864 130.472 18.309 130.026 18.6067C129.581 18.9044 129.044 19.0358 128.511 18.978C128.14 18.9878 127.772 18.9168 127.431 18.7698C127.091 18.6229 126.786 18.4037 126.539 18.1272C126.291 17.8508 126.107 17.5239 125.999 17.1691C125.89 16.8143 125.86 16.4402 125.911 16.0727C125.862 15.7041 125.892 15.3292 126 14.9734C126.108 14.6175 126.292 14.2891 126.538 14.0102C126.784 13.7314 127.087 13.5087 127.427 13.3572C127.766 13.2056 128.134 13.1289 128.506 13.1321C130.072 13.1321 131.017 14.2021 131.017 15.9696V16.3572H127.043V16.4194C127.025 16.626 127.051 16.8339 127.119 17.0298C127.187 17.2258 127.294 17.4054 127.436 17.5572C127.577 17.709 127.748 17.8297 127.938 17.9114C128.129 17.9932 128.334 18.0342 128.542 18.0319C128.807 18.0638 129.077 18.016 129.315 17.8945C129.554 17.773 129.75 17.5833 129.881 17.3495L130.95 17.3496ZM127.043 15.5356H129.886C129.9 15.3467 129.874 15.157 129.81 14.9786C129.747 14.8002 129.646 14.6371 129.516 14.4997C129.385 14.3624 129.228 14.2539 129.053 14.1812C128.878 14.1085 128.69 14.0731 128.5 14.0775C128.308 14.0751 128.117 14.1111 127.939 14.1836C127.761 14.256 127.6 14.3633 127.464 14.4992C127.328 14.6351 127.221 14.7968 127.149 14.9748C127.076 15.1528 127.04 15.3435 127.043 15.5356Z" fill="white"/>
</g>
</g>
</g>
</g>
<defs>
<clipPath id="clip0_173_1292">
<rect width="149.58" height="50" fill="white" transform="translate(0 0.5)"/>
</clipPath>
</defs>
</svg>
